<svg width="26" height="20" viewBox="0 0 26 20" fill="none" xmlns="http://www.w3.org/2000/svg">
<g clip-path="url(#clip0_682_1596)">
<path d="M-3.29541 -0.661133H29.7955V20.6599H-3.29541V-0.661133Z" fill="white"/>
<path d="M11.853 -0.661133V8.31496H-3.29541V12.1154H11.853V20.6609H14.9211V12.1154H29.7955V8.31496H14.9211V-0.661133H11.853Z" fill="#BD0034"/>
<path d="M10.829 -0.661133H-0.710449L10.829 6.50613V-0.661133Z" fill="#1A237B"/>
<path d="M-3.29541 7.04856H4.83771L-3.29541 1.98364V7.04856Z" fill="#1A237B"/>
<path d="M-3.29541 -0.664062V0.583125L6.46537 6.5682H8.8624C8.8624 6.5682 -0.757751 0.716172 -3.04309 -0.664062H-3.29541Z" fill="#BD0034"/>
<path d="M10.829 20.6612H-0.710449L10.829 13.4939V20.6612Z" fill="#1A237B"/>
<path d="M-3.29541 12.9514H4.83771L-3.29541 18.0163V12.9514Z" fill="#1A237B"/>
<path d="M-3.29541 20.6641V19.417L6.46537 13.4319H8.8624C8.8624 13.4319 -0.757751 19.2839 -3.04309 20.6641H-3.29541Z" fill="#BD0034"/>
<path d="M15.6714 -0.661133H27.2108L15.6714 6.50613V-0.661133Z" fill="#1A237B"/>
<path d="M29.7952 7.04856H21.6621L29.7952 1.98364V7.04856Z" fill="#1A237B"/>
<path d="M29.795 -0.664062V0.583125L20.0342 6.5682H17.6372C17.6372 6.5682 27.2543 0.716171 29.5427 -0.661016L29.795 -0.664062Z" fill="#BD0034"/>
<path d="M15.6714 20.6612H27.2108L15.6714 13.4939V20.6612Z" fill="#1A237B"/>
<path d="M29.7952 12.9514H21.6621L29.7952 18.0163V12.9514Z" fill="#1A237B"/>
<path d="M29.795 20.6641V19.417L20.0342 13.4319H17.6372C17.6372 13.4319 27.2543 19.2839 29.5427 20.6611L29.795 20.6641Z" fill="#BD0034"/>
</g>
<defs>
<clipPath id="clip0_682_1596">
<rect x="0.5" width="25" height="20" rx="10" fill="white"/>
</clipPath>
</defs>
</svg>
