<svg width="16" height="16" viewBox="0 0 16 16" fill="none" xmlns="http://www.w3.org/2000/svg">
<path d="M15.0287 7.47551L12.6469 9.89071L13.2091 13.301C13.3096 13.9103 13.0688 14.5261 12.588 14.8895C12.1116 15.2496 11.4747 15.3033 10.944 15.0131L8.00001 13.403L5.05606 15.0131C4.53006 15.3008 3.89282 15.2529 3.41199 14.8895C2.93127 14.5261 2.69044 13.9104 2.79098 13.301L3.35319 9.89071L0.971446 7.47551C0.545989 7.04405 0.392792 6.39865 0.576483 5.81074C0.760071 5.22283 1.2486 4.79429 1.83672 4.7054L5.12818 4.2079L6.60011 1.10507C6.8631 0.550721 7.40585 0.199707 8.00001 0.199707C8.59417 0.199707 9.13692 0.550612 9.39992 1.10496L10.872 4.20779L14.1634 4.70529C14.7514 4.79418 15.24 5.22272 15.4235 5.81063C15.6071 6.39854 15.4541 7.04405 15.0287 7.47551Z" fill="#FC485A"/>
</svg>
