<svg width="44" height="44" viewBox="0 0 44 44" fill="none" xmlns="http://www.w3.org/2000/svg">
<rect width="44" height="44" rx="15" fill="#2D2E33"/>
<g clip-path="url(#clip0_206_5074)">
<path d="M28.6564 22.4925C28.1918 21.8917 27.4906 21.479 26.553 21.2547C27.747 20.6456 28.2717 19.612 28.1277 18.1534C28.0795 17.6246 27.9333 17.1662 27.6888 16.7777C27.4441 16.389 27.114 16.0766 26.697 15.8403C26.2804 15.6036 25.8273 15.4235 25.3387 15.2993C24.8501 15.1751 24.289 15.085 23.656 15.0289V12H21.8051V14.9448C21.4847 14.9448 20.9959 14.9528 20.3389 14.9688V12H18.4878V15.0289C18.2233 15.037 17.8347 15.041 17.3219 15.041L14.7739 15.0289V17.0001H16.1079C16.7169 17.0001 17.0735 17.2727 17.1777 17.8175V21.2671C17.2579 21.2671 17.3219 21.2712 17.37 21.2792H17.1777V26.1109C17.1136 26.5194 16.8813 26.7239 16.4806 26.7239H15.1466L14.7739 28.9235H17.1779C17.3301 28.9235 17.5504 28.9255 17.8389 28.9292C18.1274 28.9332 18.3436 28.9352 18.4879 28.9352V32.0001H20.3393V28.9713C20.6757 28.9795 21.1645 28.9834 21.8055 28.9834V32.0001H23.6564V28.9352C24.3136 28.9032 24.8965 28.8434 25.4051 28.755C25.9139 28.6665 26.4009 28.5285 26.8655 28.3401C27.3301 28.1519 27.7187 27.9174 28.0311 27.6369C28.3438 27.3567 28.6019 27 28.8066 26.5672C29.0106 26.1344 29.141 25.6336 29.1969 25.0646C29.3015 23.9511 29.1211 23.0936 28.6564 22.4925ZM20.3749 17.132C20.431 17.132 20.5893 17.13 20.8497 17.1259C21.1102 17.1218 21.3265 17.1179 21.4988 17.1138C21.6711 17.1099 21.9034 17.1199 22.196 17.1439C22.4885 17.168 22.7349 17.2001 22.9351 17.2401C23.1354 17.2801 23.3559 17.3462 23.5961 17.4384C23.8367 17.5304 24.0289 17.6427 24.1729 17.7748C24.3173 17.907 24.4395 18.0754 24.5395 18.2797C24.6397 18.484 24.6898 18.7184 24.6898 18.9828C24.6898 19.2072 24.6538 19.4116 24.5818 19.596C24.5099 19.7802 24.4015 19.9345 24.2574 20.0587C24.1133 20.1829 23.9648 20.2912 23.8125 20.3833C23.6604 20.4754 23.4659 20.5495 23.2296 20.6056C22.9933 20.6617 22.787 20.7058 22.6108 20.7378C22.4345 20.7698 22.2142 20.7919 21.9498 20.8039C21.6853 20.8158 21.4849 20.824 21.3487 20.828C21.2124 20.8319 21.0262 20.8319 20.7897 20.828C20.5532 20.824 20.4152 20.8219 20.375 20.8219V17.132H20.3749V17.132ZM25.4293 25.3171C25.3529 25.5015 25.2549 25.6619 25.1348 25.7982C25.0145 25.9342 24.8562 26.0545 24.6599 26.1585C24.4638 26.2628 24.2733 26.3468 24.0891 26.4109C23.9047 26.4753 23.6823 26.5311 23.4221 26.5793C23.1614 26.6274 22.9331 26.6613 22.7366 26.6815C22.5404 26.7015 22.3061 26.7175 22.0336 26.7296C21.7612 26.7414 21.5488 26.7475 21.3966 26.7475C21.2443 26.7475 21.052 26.7453 20.8196 26.7414C20.5871 26.7377 20.439 26.7356 20.3748 26.7356V22.6729C20.4388 22.6729 20.6292 22.669 20.9457 22.6608C21.2624 22.6527 21.5206 22.649 21.721 22.649C21.9213 22.649 22.1978 22.6608 22.5505 22.685C22.9029 22.7089 23.1994 22.7448 23.44 22.7929C23.6803 22.841 23.9425 22.9151 24.2272 23.0153C24.5116 23.1154 24.7421 23.2376 24.9184 23.3818C25.0947 23.5263 25.2429 23.7103 25.363 23.9348C25.4835 24.1591 25.5436 24.4155 25.5436 24.7041C25.5435 24.9287 25.5055 25.1327 25.4293 25.3171Z" fill="#FFCA8C"/>
</g>
<defs>
<clipPath id="clip0_206_5074">
<rect width="20" height="20" fill="white" transform="translate(12 12)"/>
</clipPath>
</defs>
</svg>
