<svg width="44" height="44" viewBox="0 0 44 44" fill="none" xmlns="http://www.w3.org/2000/svg">
<rect width="44" height="44" rx="15" fill="#2D2E33"/>
<g clip-path="url(#clip0_206_5084)">
<path d="M21.722 23.111L20.1294 28.4811H28.6476C28.7041 28.4792 28.7603 28.4883 28.8132 28.5081C28.8661 28.5279 28.9145 28.5579 28.9558 28.5964C28.9971 28.6349 29.0304 28.6812 29.0538 28.7326C29.0771 28.784 29.0901 28.8395 29.0921 28.8959V29.0367L28.3513 31.5921C28.3187 31.713 28.2459 31.8191 28.145 31.8932C28.044 31.9672 27.9209 32.0047 27.7958 31.9995H14.7592L16.9444 24.5554L14.5 25.2961L15.0555 23.5924L17.4999 22.8517L20.5739 12.4077C20.6077 12.2875 20.6808 12.1821 20.7814 12.1083C20.8821 12.0344 21.0046 11.9964 21.1294 12.0003H24.4256C24.482 11.9983 24.5382 12.0074 24.5911 12.0272C24.644 12.047 24.6925 12.077 24.7338 12.1155C24.775 12.1541 24.8083 12.2004 24.8317 12.2517C24.8551 12.3031 24.8681 12.3586 24.87 12.4151V12.5558L22.2775 21.3703L24.7218 20.6296L24.2033 22.4073L21.722 23.111Z" fill="#A7CAFF"/>
</g>
<defs>
<clipPath id="clip0_206_5084">
<rect width="20" height="20" fill="white" transform="translate(12 12)"/>
</clipPath>
</defs>
</svg>
