<svg width="72" height="72" viewBox="0 0 72 72" fill="none" xmlns="http://www.w3.org/2000/svg">
<g clip-path="url(#clip0_206_6929)">
<rect width="72" height="72" rx="28.8" fill="#FC485A"/>
<path d="M44.5811 22.9971L35.9999 12L27.4187 22.9971L21.1297 19.716C18.0543 32.0236 15.2528 37.4869 10.0799 46.9974C20.8358 49.0632 22.3052 47.2404 32.4734 55.2L29.8873 38.4302C26.8462 38.0442 23.7613 38.5757 21.7762 39.5846L28.5942 26.8857L35.9999 32.1976L43.4056 26.8857L50.2236 39.5846C48.2385 38.5757 45.1536 38.0442 42.1125 38.4302L39.5264 55.2C49.6946 47.2404 51.164 49.0632 61.9199 46.9974C56.747 37.4869 53.9455 32.0236 50.8701 19.716L44.5811 22.9971Z" fill="white"/>
</g>
<defs>
<clipPath id="clip0_206_6929">
<rect width="72" height="72" fill="white"/>
</clipPath>
</defs>
</svg>
