<svg width="54" height="54" viewBox="0 0 54 54" fill="none" xmlns="http://www.w3.org/2000/svg">
<path d="M45.6905 35.6925C46.2085 34.8589 46.678 33.9962 47.0969 33.1087L41.5717 29.3285C40.9451 30.6092 40.2438 31.8519 39.4712 33.0503C39.3965 33.1681 39.3685 33.3096 39.3928 33.447C39.4171 33.5844 39.4919 33.7077 39.6025 33.7928C40.5082 34.496 42.1548 35.4763 44.7923 36.0712C44.9628 36.1095 45.141 36.0936 45.302 36.0257C45.4631 35.9578 45.5989 35.8413 45.6905 35.6925Z" fill="url(#paint0_linear_741_10155)"/>
<path d="M14.7125 33.3377C13.8699 32.0493 13.1072 30.7104 12.4288 29.3285L6.90381 33.1087C7.34121 34.0353 7.83343 34.9351 8.37784 35.8032C8.46755 35.9478 8.59903 36.0617 8.7549 36.1299C8.91077 36.1981 9.08366 36.2173 9.25072 36.1851C11.8169 35.6848 13.5185 34.8162 14.5547 34.1047C14.6758 34.0227 14.7601 33.8966 14.7896 33.7533C14.819 33.61 14.7914 33.4608 14.7125 33.3377Z" fill="url(#paint1_linear_741_10155)"/>
<path d="M42.4744 38.1838C36.1314 36.3425 31.6217 30.6816 31.6217 30.6816H22.3819C22.3819 30.6816 17.8722 36.3425 11.5293 38.1838C7.31836 39.4064 5.873 41.0197 5.37715 41.9661C5.27336 42.1626 5.24305 42.3897 5.29166 42.6066C5.34028 42.8235 5.46463 43.0159 5.64239 43.1493C12.7138 48.4077 20.9638 51.2127 24.8141 52.3245C26.2434 52.7374 27.7603 52.7374 29.1895 52.3245C33.0399 51.2127 41.2899 48.4077 48.3613 43.1493C48.539 43.0159 48.6634 42.8235 48.712 42.6066C48.7606 42.3897 48.7303 42.1626 48.6265 41.9661C48.1307 41.0197 46.6853 39.4064 42.4744 38.1838Z" fill="url(#paint2_linear_741_10155)"/>
<path d="M15.8628 15.8447C16.306 19.8332 16.8969 23.3047 16.8969 23.3047C20.073 28.992 33.9269 28.992 37.1031 23.3047C37.1031 23.3047 37.6939 19.8332 38.1371 15.8447H15.8628Z" fill="url(#paint3_linear_741_10155)"/>
<path d="M15.8628 15.8447C16.306 19.8332 16.8969 23.3047 16.8969 23.3047C20.073 28.992 33.9269 28.992 37.1031 23.3047C37.1031 23.3047 37.6939 19.8332 38.1371 15.8447H15.8628Z" fill="url(#paint4_linear_741_10155)"/>
<path d="M33.9434 25.5643C32.4234 26.2991 30.3723 26.2015 28.6086 25.6671C27.6183 25.3558 26.5552 25.3644 25.5702 25.6916C23.7795 26.3065 21.6241 26.3216 20.0577 25.5643C17.3598 24.2601 16.8975 23.3043 16.8975 23.3043C17.1993 25.3023 17.7208 27.5634 18.1596 29.3018C18.6255 31.1766 19.5067 32.9228 20.7379 34.4115C21.9691 35.9001 23.5191 37.0932 25.2732 37.9025C25.828 38.1648 26.4064 38.3741 27.0006 38.5277C27.5946 38.374 28.1729 38.1647 28.7276 37.9023C30.4818 37.0928 32.0318 35.8995 33.2631 34.4106C34.4944 32.9218 35.3756 31.1754 35.8415 29.3003C36.2807 27.5621 36.802 25.302 37.1036 23.3047C37.1036 23.3043 36.6413 24.2601 33.9434 25.5643Z" fill="url(#paint5_linear_741_10155)"/>
<path d="M20.187 20.2983L24.7183 22.699C24.7183 22.699 23.4893 24.4161 21.4326 23.5884C19.4077 22.7729 20.187 20.2983 20.187 20.2983Z" fill="#ECECEC"/>
<path d="M33.8126 20.2983L29.2812 22.699C29.2812 22.699 30.5102 24.4161 32.567 23.5884C34.5928 22.7729 33.8126 20.2983 33.8126 20.2983Z" fill="#ECECEC"/>
<path d="M16.0314 17.2836C16.0314 17.2836 18.7256 19.5494 27 19.5494C35.5142 19.5494 37.933 17.5708 37.933 17.5708C38.0026 17.0129 38.0715 16.4349 38.1371 15.8444H15.8628C15.9172 16.3337 15.9739 16.8153 16.0314 17.2836Z" fill="#455079"/>
<path d="M35.0537 4.14392C33.2798 2.46704 30.7035 1.125 27.0005 1.125C24.5937 1.125 22.6655 1.6937 21.1224 2.55107C21.1157 2.59524 20.4984 6.8729 28.8422 11.3321C28.8422 11.3321 35.2298 11.5041 37.3834 7.35757C36.812 6.15165 36.0221 5.06204 35.0537 4.14392Z" fill="url(#paint6_linear_741_10155)"/>
<path d="M35.0537 4.14392C33.2798 2.46704 30.7035 1.125 27.0005 1.125C24.5937 1.125 22.6655 1.6937 21.1224 2.55107C21.1157 2.59524 20.4984 6.8729 28.8422 11.3321C28.8422 11.3321 35.2298 11.5041 37.3834 7.35757C36.812 6.15165 36.0221 5.06204 35.0537 4.14392Z" fill="url(#paint7_linear_741_10155)"/>
<path d="M36.6368 8.45443C29.236 7.71408 25.0001 3.41658 23.5065 1.57959C22.6762 1.80822 21.876 2.13432 21.1224 2.5511C21.1157 2.59527 20.4984 6.87293 28.8422 11.3322C28.8415 11.3318 34.0378 11.4705 36.6368 8.45443Z" fill="#455079"/>
<path d="M21.123 2.55017C20.3359 2.98682 19.6065 3.52042 18.9521 4.13852C17.1405 5.86511 15.971 8.15727 15.6362 10.6374L16.8944 13.0554C24.8356 15.7567 35.1865 10.7193 35.1865 10.7193C26.8645 8.99839 22.5697 4.41583 21.123 2.55017Z" fill="url(#paint8_linear_741_10155)"/>
<path d="M21.123 2.55017C20.3359 2.98682 19.6065 3.52042 18.9521 4.13852C17.1405 5.86511 15.971 8.15727 15.6362 10.6374L16.8944 13.0554C24.8356 15.7567 35.1865 10.7193 35.1865 10.7193C26.8645 8.99839 22.5697 4.41583 21.123 2.55017Z" fill="url(#paint9_linear_741_10155)"/>
<path d="M37.3827 7.35725C37.1227 6.81249 36.8182 6.29011 36.4723 5.79541C32.8245 7.85058 28.3618 8.43406 24.522 8.44794C25.8517 9.56465 27.3003 10.5317 28.8415 11.3318C28.8415 11.3318 35.2291 11.5038 37.3827 7.35725Z" fill="#455079"/>
<path d="M28.1672 8.25098C22.9934 8.81391 18.1171 8.02289 16.4615 7.7041C16.0557 8.64021 15.7781 9.62682 15.6362 10.6372L16.8944 13.0551C24.8356 15.7565 35.1865 10.7191 35.1865 10.7191C32.7436 10.2258 30.3812 9.39519 28.1672 8.25098Z" fill="#455079"/>
<path d="M38.1393 15.8448L38.4031 13.5675C38.6524 11.443 38.2994 9.29117 37.3844 7.35767C31.1129 12.3187 18.8316 11.072 15.6391 10.6461C15.5027 11.6143 15.49 12.5958 15.6014 13.5672L15.8652 15.8445C15.8652 15.8445 17.6621 17.9442 27.0022 17.9442C36.3422 17.9442 38.1393 15.8448 38.1393 15.8448Z" fill="url(#paint10_linear_741_10155)"/>
<path d="M2.62608 8.017C2.66407 8.00126 2.70266 7.98605 2.74184 7.97139C2.92293 7.90198 3.11706 7.87325 3.31049 7.88723C3.50391 7.90122 3.69189 7.95757 3.86111 8.05231C4.03033 8.14704 4.17664 8.27783 4.28967 8.43542C4.4027 8.593 4.47969 8.77351 4.51519 8.96417C5.1304 12.3179 7.00345 21.3347 10.3129 27.4491L6.14771 29.9671C6.14771 29.9671 2.02656 23.3893 0.0745259 12.7683C-0.107569 11.804 0.0463682 10.8064 0.510675 9.94177C0.974982 9.07717 1.72161 8.39783 2.62608 8.017Z" fill="url(#paint11_linear_741_10155)"/>
<path d="M2.58962 31.571L13.4623 24.1684C13.5505 24.1081 13.6509 24.0681 13.7564 24.0511C13.8619 24.0342 13.9699 24.0408 14.0725 24.0705C14.1751 24.1002 14.2699 24.1522 14.3501 24.2228C14.4303 24.2934 14.4939 24.3808 14.5364 24.4788C14.9912 25.5369 15.2504 26.6686 15.3014 27.8191C15.3078 27.943 15.2826 28.0666 15.2281 28.1781C15.1737 28.2896 15.0917 28.3855 14.99 28.4567L5.10908 35.3064C4.97405 35.4013 4.81048 35.4469 4.64582 35.4355C4.48117 35.424 4.32546 35.3563 4.20483 35.2437C3.36635 34.4573 2.71983 33.4888 2.31519 32.4128C2.26038 32.262 2.25763 32.0972 2.30736 31.9446C2.3571 31.792 2.45646 31.6605 2.58962 31.571Z" fill="url(#paint12_linear_741_10155)"/>
<path d="M2.58962 31.571L13.4623 24.1684C13.5505 24.1081 13.6509 24.0681 13.7564 24.0511C13.8619 24.0342 13.9699 24.0408 14.0725 24.0705C14.1751 24.1002 14.2699 24.1522 14.3501 24.2228C14.4303 24.2934 14.4939 24.3808 14.5364 24.4788C14.9912 25.5369 15.2504 26.6686 15.3014 27.8191C15.3078 27.943 15.2826 28.0666 15.2281 28.1781C15.1737 28.2896 15.0917 28.3855 14.99 28.4567L5.10908 35.3064C4.97405 35.4013 4.81048 35.4469 4.64582 35.4355C4.48117 35.424 4.32546 35.3563 4.20483 35.2437C3.36635 34.4573 2.71983 33.4888 2.31519 32.4128C2.26038 32.262 2.25763 32.0972 2.30736 31.9446C2.3571 31.792 2.45646 31.6605 2.58962 31.571Z" fill="url(#paint13_linear_741_10155)"/>
<path d="M2.58962 31.571L13.4623 24.1684C13.5505 24.1081 13.6509 24.0681 13.7564 24.0511C13.8619 24.0342 13.9699 24.0408 14.0725 24.0705C14.1751 24.1002 14.2699 24.1522 14.3501 24.2228C14.4303 24.2934 14.4939 24.3808 14.5364 24.4788C14.9912 25.5369 15.2504 26.6686 15.3014 27.8191C15.3078 27.943 15.2826 28.0666 15.2281 28.1781C15.1737 28.2896 15.0917 28.3855 14.99 28.4567L5.10908 35.3064C4.97405 35.4013 4.81048 35.4469 4.64582 35.4355C4.48117 35.424 4.32546 35.3563 4.20483 35.2437C3.36635 34.4573 2.71983 33.4888 2.31519 32.4128C2.26038 32.262 2.25763 32.0972 2.30736 31.9446C2.3571 31.792 2.45646 31.6605 2.58962 31.571Z" fill="url(#paint14_linear_741_10155)"/>
<path d="M51.3738 8.017C51.3358 8.00126 51.2972 7.98605 51.258 7.97139C51.0769 7.90198 50.8828 7.87325 50.6894 7.88723C50.496 7.90122 50.308 7.95757 50.1388 8.05231C49.9695 8.14704 49.8232 8.27783 49.7102 8.43542C49.5972 8.593 49.5202 8.77351 49.4847 8.96417C48.8695 12.3179 46.9964 21.3347 43.687 27.4491L47.8522 29.9671C47.8522 29.9671 51.9726 23.3893 53.9246 12.7683C54.1068 11.8041 53.9529 10.8065 53.4888 9.94194C53.0246 9.07735 52.2781 8.39796 51.3738 8.017Z" fill="url(#paint15_linear_741_10155)"/>
<path d="M51.414 31.571L40.5413 24.1684C40.4531 24.1081 40.3526 24.0681 40.2471 24.0511C40.1417 24.0342 40.0337 24.0408 39.9311 24.0705C39.8284 24.1002 39.7336 24.1522 39.6534 24.2228C39.5732 24.2934 39.5097 24.3808 39.4672 24.4788C39.0124 25.5369 38.7532 26.6686 38.7021 27.8191C38.6957 27.943 38.721 28.0666 38.7754 28.1781C38.8299 28.2896 38.9118 28.3855 39.0135 28.4567L48.8945 35.3064C49.0295 35.4013 49.1931 35.4469 49.3578 35.4355C49.5224 35.424 49.6781 35.3563 49.7987 35.2437C50.6372 34.4573 51.2837 33.4888 51.6884 32.4128C51.7432 32.262 51.7459 32.0972 51.6962 31.9446C51.6465 31.792 51.5471 31.6605 51.414 31.571Z" fill="url(#paint16_linear_741_10155)"/>
<path d="M51.414 31.571L40.5413 24.1684C40.4531 24.1081 40.3526 24.0681 40.2471 24.0511C40.1417 24.0342 40.0337 24.0408 39.9311 24.0705C39.8284 24.1002 39.7336 24.1522 39.6534 24.2228C39.5732 24.2934 39.5097 24.3808 39.4672 24.4788C39.0124 25.5369 38.7532 26.6686 38.7021 27.8191C38.6957 27.943 38.721 28.0666 38.7754 28.1781C38.8299 28.2896 38.9118 28.3855 39.0135 28.4567L48.8945 35.3064C49.0295 35.4013 49.1931 35.4469 49.3578 35.4355C49.5224 35.424 49.6781 35.3563 49.7987 35.2437C50.6372 34.4573 51.2837 33.4888 51.6884 32.4128C51.7432 32.262 51.7459 32.0972 51.6962 31.9446C51.6465 31.792 51.5471 31.6605 51.414 31.571Z" fill="url(#paint17_linear_741_10155)"/>
<path d="M51.414 31.571L40.5413 24.1684C40.4531 24.1081 40.3526 24.0681 40.2471 24.0511C40.1417 24.0342 40.0337 24.0408 39.9311 24.0705C39.8284 24.1002 39.7336 24.1522 39.6534 24.2228C39.5732 24.2934 39.5097 24.3808 39.4672 24.4788C39.0124 25.5369 38.7532 26.6686 38.7021 27.8191C38.6957 27.943 38.721 28.0666 38.7754 28.1781C38.8299 28.2896 38.9118 28.3855 39.0135 28.4567L48.8945 35.3064C49.0295 35.4013 49.1931 35.4469 49.3578 35.4355C49.5224 35.424 49.6781 35.3563 49.7987 35.2437C50.6372 34.4573 51.2837 33.4888 51.6884 32.4128C51.7432 32.262 51.7459 32.0972 51.6962 31.9446C51.6465 31.792 51.5471 31.6605 51.414 31.571Z" fill="url(#paint18_linear_741_10155)"/>
<path d="M51.414 31.571L40.5413 24.1684C40.4531 24.1081 40.3526 24.0681 40.2471 24.0511C40.1417 24.0342 40.0337 24.0408 39.9311 24.0705C39.8284 24.1002 39.7336 24.1522 39.6534 24.2228C39.5732 24.2934 39.5097 24.3808 39.4672 24.4788C39.0124 25.5369 38.7532 26.6686 38.7021 27.8191C38.6957 27.943 38.721 28.0666 38.7754 28.1781C38.8299 28.2896 38.9118 28.3855 39.0135 28.4567L48.8945 35.3064C49.0295 35.4013 49.1931 35.4469 49.3578 35.4355C49.5224 35.424 49.6781 35.3563 49.7987 35.2437C50.6372 34.4573 51.2837 33.4888 51.6884 32.4128C51.7432 32.262 51.7459 32.0972 51.6962 31.9446C51.6465 31.792 51.5471 31.6605 51.414 31.571Z" fill="url(#paint19_linear_741_10155)"/>
<defs>
<linearGradient id="paint0_linear_741_10155" x1="43.2406" y1="27.3084" x2="43.2406" y2="34.4951" gradientUnits="userSpaceOnUse">
<stop stop-color="#667196"/>
<stop offset="1" stop-color="#3B466F"/>
</linearGradient>
<linearGradient id="paint1_linear_741_10155" x1="10.8524" y1="27.276" x2="10.8524" y2="34.5782" gradientUnits="userSpaceOnUse">
<stop stop-color="#667196"/>
<stop offset="1" stop-color="#3B466F"/>
</linearGradient>
<linearGradient id="paint2_linear_741_10155" x1="27.0018" y1="63.6802" x2="27" y2="41.6251" gradientUnits="userSpaceOnUse">
<stop stop-color="#6B7A96"/>
<stop offset="1" stop-color="#455779"/>
</linearGradient>
<linearGradient id="paint3_linear_741_10155" x1="27" y1="18.5402" x2="27" y2="27.5268" gradientUnits="userSpaceOnUse">
<stop stop-color="#FFAD7F"/>
<stop offset="1" stop-color="#CE7663"/>
</linearGradient>
<linearGradient id="paint4_linear_741_10155" x1="17.5979" y1="28.9914" x2="38.5127" y2="26.0802" gradientUnits="userSpaceOnUse">
<stop stop-color="#D33B4B"/>
<stop offset="1" stop-color="#F4495A"/>
</linearGradient>
<linearGradient id="paint5_linear_741_10155" x1="27.0006" y1="18.7573" x2="27.0006" y2="34.9341" gradientUnits="userSpaceOnUse">
<stop stop-color="#7A8AA9"/>
<stop offset="1" stop-color="#445379"/>
</linearGradient>
<linearGradient id="paint6_linear_741_10155" x1="29.2463" y1="-8.64518" x2="29.2463" y2="9.52321" gradientUnits="userSpaceOnUse">
<stop stop-color="#7A6CAB"/>
<stop offset="1" stop-color="#514F8E"/>
</linearGradient>
<linearGradient id="paint7_linear_741_10155" x1="29.2463" y1="-8.64518" x2="29.2463" y2="9.52321" gradientUnits="userSpaceOnUse">
<stop stop-color="#6C7AAB"/>
<stop offset="1" stop-color="#4F608E"/>
</linearGradient>
<linearGradient id="paint8_linear_741_10155" x1="25.4109" y1="-8.26651" x2="25.4109" y2="11.8479" gradientUnits="userSpaceOnUse">
<stop stop-color="#7A6CAB"/>
<stop offset="1" stop-color="#514F8E"/>
</linearGradient>
<linearGradient id="paint9_linear_741_10155" x1="25.4109" y1="-8.26651" x2="25.4109" y2="11.8479" gradientUnits="userSpaceOnUse">
<stop stop-color="#6C7AAB"/>
<stop offset="1" stop-color="#4F608E"/>
</linearGradient>
<linearGradient id="paint10_linear_741_10155" x1="27.0031" y1="-2.77464" x2="27.0031" y2="16.0671" gradientUnits="userSpaceOnUse">
<stop stop-color="#6C7AAB"/>
<stop offset="1" stop-color="#4F608E"/>
</linearGradient>
<linearGradient id="paint11_linear_741_10155" x1="5.15643" y1="1.28774" x2="5.15643" y2="24.7542" gradientUnits="userSpaceOnUse">
<stop stop-color="#667196"/>
<stop offset="1" stop-color="#3B466F"/>
</linearGradient>
<linearGradient id="paint12_linear_741_10155" x1="8.78667" y1="39.8069" x2="8.78667" y2="22.4201" gradientUnits="userSpaceOnUse">
<stop stop-color="#FFAB4A"/>
<stop offset="1" stop-color="#FFE2BB"/>
</linearGradient>
<linearGradient id="paint13_linear_741_10155" x1="3.9375" y1="20.8125" x2="8.78719" y2="35.4892" gradientUnits="userSpaceOnUse">
<stop stop-color="#EBF8FF"/>
<stop offset="0.5" stop-color="#B4DCFF"/>
<stop offset="1" stop-color="#9BA4FF"/>
</linearGradient>
<linearGradient id="paint14_linear_741_10155" x1="3.28702" y1="36.8184" x2="15.6722" y2="35.7807" gradientUnits="userSpaceOnUse">
<stop stop-color="#D33B4B"/>
<stop offset="1" stop-color="#F4495A"/>
</linearGradient>
<linearGradient id="paint15_linear_741_10155" x1="48.8431" y1="1.28774" x2="48.8431" y2="24.7542" gradientUnits="userSpaceOnUse">
<stop stop-color="#667196"/>
<stop offset="1" stop-color="#3B466F"/>
</linearGradient>
<linearGradient id="paint16_linear_741_10155" x1="45.2169" y1="39.8069" x2="45.2169" y2="22.4201" gradientUnits="userSpaceOnUse">
<stop stop-color="#FFAB4A"/>
<stop offset="1" stop-color="#FFE2BB"/>
</linearGradient>
<linearGradient id="paint17_linear_741_10155" x1="45.2164" y1="24.8477" x2="45.2164" y2="35.4892" gradientUnits="userSpaceOnUse">
<stop stop-color="#9BA4FF"/>
<stop offset="0.5" stop-color="#B4DCFF"/>
<stop offset="1" stop-color="#EBF8FF"/>
</linearGradient>
<linearGradient id="paint18_linear_741_10155" x1="48.3746" y1="22.5" x2="42.1871" y2="33.75" gradientUnits="userSpaceOnUse">
<stop stop-color="#EBF8FF"/>
<stop offset="0.5" stop-color="#B4DCFF"/>
<stop offset="1" stop-color="#9BA4FF"/>
</linearGradient>
<linearGradient id="paint19_linear_741_10155" x1="39.7162" y1="36.8184" x2="52.1014" y2="35.7807" gradientUnits="userSpaceOnUse">
<stop stop-color="#D33B4B"/>
<stop offset="1" stop-color="#F4495A"/>
</linearGradient>
</defs>
</svg>
