<svg width="60" height="60" viewBox="0 0 60 60" fill="none" xmlns="http://www.w3.org/2000/svg">
<g clip-path="url(#clip0_718_3815)">
<g clip-path="url(#clip1_718_3815)">
<path d="M19.9986 20.4799C20.7426 14.6397 20.8201 9.30927 17.5339 6.54967C17.5339 6.54967 14.6705 1.37112 7.72526 8.13366C6.55567 7.71807 5.33297 7.47074 4.09382 7.39907C0.744911 7.27504 -0.397841 11.8158 2.61102 13.2902C3.51689 13.7213 4.47259 14.0388 5.45638 14.2353C7.20822 14.5775 8.85678 15.3215 10.2725 16.4086C11.8236 17.6396 13.3346 19.5059 13.4506 22.1456L19.9986 20.4799Z" fill="url(#paint0_linear_718_3815)"/>
<path d="M19.9986 20.4799C20.7426 14.6397 20.8201 9.30927 17.5339 6.54967C17.5339 6.54967 14.6705 1.37112 7.72526 8.13366C6.55567 7.71807 5.33297 7.47074 4.09382 7.39907C0.744911 7.27504 -0.397841 11.8158 2.61102 13.2902C3.51689 13.7213 4.47259 14.0388 5.45638 14.2353C7.20822 14.5775 8.85678 15.3215 10.2725 16.4086C11.8236 17.6396 13.3346 19.5059 13.4506 22.1456L19.9986 20.4799Z" fill="url(#paint1_linear_718_3815)"/>
<path d="M13.0757 11.6492C12.8446 10.1851 12.1339 7.57915 9.96262 6.24805C9.16805 6.81655 8.41971 7.44704 7.72461 8.1336C7.72461 8.1336 10.7725 9.61379 12.5882 11.8634C12.6261 11.9109 12.6786 11.9445 12.7376 11.959C12.7965 11.9735 12.8587 11.9681 12.9143 11.9437C12.9699 11.9193 13.0158 11.8771 13.045 11.8239C13.0742 11.7706 13.085 11.7092 13.0757 11.6492Z" fill="#485686"/>
<path fill-rule="evenodd" clip-rule="evenodd" d="M22.9097 19.0352C23.0158 16.4863 23.6326 13.9806 24.7275 11.6682C24.9372 11.243 25.0587 10.7797 25.0847 10.3063C25.1106 9.83287 25.0405 9.35909 24.8784 8.9135C24.7164 8.46791 24.4658 8.05974 24.1418 7.71356C23.8178 7.36739 23.4271 7.09039 22.9932 6.89923C21.6559 6.31574 19.8533 6.00515 17.5341 6.54958L17.5343 6.54987C17.5548 6.6038 20.4068 14.0916 17.5138 19.0632C12.9963 19.8235 9.17042 22.3188 12.4248 26.2889L25.7797 24.6519C25.7797 24.6519 27.3636 20.0508 22.9097 19.0352Z" fill="url(#paint2_linear_718_3815)"/>
<path d="M12.0451 25.7865C7.84515 28.3164 3.27555 32.8885 1.69718 41.0687C1.42827 42.4445 1.36017 43.8521 1.495 45.2475C10.4034 56.1416 26.052 48.3434 29.6079 34.0769C30.7912 30.7596 30.3507 27.4244 28.8217 24.0749C23.3143 22.0224 17.1322 22.7223 12.0451 25.7865Z" fill="url(#paint3_linear_718_3815)"/>
<path d="M14.5963 47.6491C29.2643 43.1186 29.5058 29.9666 28.8205 24.0771C32.5959 25.4851 36.1023 27.1022 38.9999 29.9999C42.9999 33.9999 43.8559 48.1451 40.4495 52.1192C37.0431 56.0934 30.2643 57.837 26.5911 58.212H15.9338C8.99957 58.212 2.97042 53.325 1.67879 46.5122C1.65848 46.4051 1.63945 46.2996 1.62168 46.1958C1.56818 45.8808 1.52951 45.5644 1.49805 45.2472C4.3933 47.9669 8.58118 49.507 14.5963 47.6491Z" fill="url(#paint4_linear_718_3815)"/>
</g>
<g clip-path="url(#clip2_718_3815)">
<path d="M44.0566 16.8362L41.8212 19.0715C39.6607 21.232 40.6616 25.7356 44.0566 29.1307C47.4515 32.5258 51.9552 33.5265 54.1157 31.366L56.3511 29.1307L44.0566 16.8362Z" fill="#F3AB52"/>
<path d="M56.3446 29.1312C58.5048 26.9711 57.5041 22.4681 54.1095 19.0736C50.715 15.679 46.212 14.6783 44.0519 16.8385C41.8918 18.9986 42.8924 23.5016 46.287 26.8961C49.6815 30.2907 54.1845 31.2913 56.3446 29.1312Z" fill="#F3C35D"/>
<path d="M54.6745 27.4613C56.1089 26.0269 55.2676 22.8599 52.7953 20.3877C50.3231 17.9154 47.1561 17.0741 45.7217 18.5085C44.2873 19.9429 45.1287 23.1099 47.6009 25.5821C50.0731 28.0543 53.2401 28.8957 54.6745 27.4613Z" fill="#FFE883"/>
<path d="M54.1156 25.7778L54.0061 25.6683C54.409 24.7736 54.2251 23.652 53.4525 22.8788C52.2246 21.6508 51.0083 21.9001 49.9663 22.2297C49.0363 22.5238 48.6296 22.5269 48.0731 21.9704C47.7073 21.6045 47.661 21.0566 47.9689 20.7479C48.2761 20.4407 48.8249 20.4862 49.1914 20.8529C49.5002 21.1616 50.0003 21.1616 50.309 20.8529C50.6177 20.5441 50.6177 20.044 50.309 19.7353C49.5352 18.9609 48.4135 18.7772 47.5191 19.1806L47.4101 19.0716C47.1014 18.7629 46.6012 18.7629 46.2926 19.0716C45.9839 19.3804 45.9839 19.8805 46.2926 20.1892L46.402 20.2986C45.9986 21.1937 46.1829 22.3154 46.9555 23.088C48.182 24.3136 49.3975 24.0651 50.4417 23.7378C51.374 23.4422 51.777 23.4399 52.3349 23.9964C52.7 24.3623 52.747 24.911 52.4384 25.2189C52.2994 25.3587 52.1026 25.4381 51.885 25.4204C51.6411 25.4096 51.4034 25.3008 51.2166 25.114C50.9079 24.8052 50.4077 24.8052 50.0991 25.114C49.7904 25.4227 49.7903 25.9228 50.0991 26.2315C50.5653 26.6984 51.175 26.9709 51.8148 26.9994C51.8526 27.0009 51.8896 27.0017 51.9274 27.0017C52.2697 27.0017 52.5946 26.9248 52.8922 26.7895L52.9978 26.8952C53.1522 27.0495 53.3544 27.1267 53.5566 27.1267C53.7589 27.1267 53.9611 27.0495 54.1155 26.8952C54.4243 26.5865 54.4243 26.0864 54.1156 25.7778Z" fill="#D6A030"/>
<path d="M36.9425 3.14014L39.1778 5.37547C41.3383 7.53597 40.3374 12.0396 36.9425 15.4346C33.5475 18.8297 29.0438 19.8305 26.8833 17.67L24.6479 15.4346L36.9425 3.14014Z" fill="#F3AB52"/>
<path d="M34.7038 13.1994C38.0983 9.80485 39.099 5.30189 36.9389 3.14175C34.7787 0.981614 30.2758 1.98229 26.8812 5.37683C23.4867 8.77137 22.486 13.2743 24.6461 15.4345C26.8063 17.5946 31.3092 16.5939 34.7038 13.1994Z" fill="#F3C35D"/>
<path d="M33.3896 11.8853C35.8618 9.41302 36.7031 6.24606 35.2687 4.81167C33.8343 3.37727 30.6674 4.2186 28.1951 6.69085C25.7229 9.16309 24.8816 12.33 26.316 13.7644C27.7504 15.1988 30.9173 14.3575 33.3896 11.8853Z" fill="#FFE883"/>
<path d="M28.0008 13.1988L28.1103 13.0893C29.0049 13.4922 30.1265 13.3084 30.8997 12.5358C32.1277 11.3078 31.8784 10.0915 31.5488 9.0496C31.2547 8.11955 31.2516 7.71282 31.8081 7.1564C32.174 6.79052 32.7219 6.7443 33.0307 7.05218C33.3379 7.35938 33.2923 7.90815 32.9257 8.27469C32.6169 8.58343 32.6169 9.08357 32.9257 9.39221C33.2344 9.70095 33.7346 9.70095 34.0432 9.39221C34.8176 8.61845 35.0014 7.49672 34.5979 6.60237L34.7069 6.49337C35.0156 6.18463 35.0156 5.68448 34.7069 5.37584C34.3982 5.0671 33.898 5.0671 33.5894 5.37584L33.48 5.48523C32.5849 5.08184 31.4631 5.26617 30.6905 6.03878C29.465 7.26521 29.7134 8.48074 30.0407 9.52495C30.3363 10.4573 30.3386 10.8602 29.7821 11.4182C29.4162 11.7833 28.8676 11.8303 28.5596 11.5216C28.4199 11.3826 28.3404 11.1859 28.3581 10.9683C28.369 10.7244 28.4778 10.4867 28.6646 10.2999C28.9733 9.99112 28.9733 9.49098 28.6646 9.18234C28.3559 8.8736 27.8557 8.8736 27.5471 9.18234C27.0801 9.64851 26.8077 10.2582 26.7791 10.898C26.7776 10.9358 26.7768 10.9728 26.7768 11.0107C26.7768 11.353 26.8538 11.6779 26.989 11.9754L26.8834 12.0811C26.729 12.2355 26.6519 12.4377 26.6519 12.6399C26.6519 12.8421 26.729 13.0443 26.8834 13.1987C27.192 13.5074 27.6921 13.5074 28.0008 13.1988Z" fill="#D6A030"/>
<path d="M45.2866 37.5653L43.0513 35.33C40.8908 33.1695 36.3872 34.1704 32.9921 37.5653C29.5971 40.9603 28.5963 45.464 30.7568 47.6245L32.9921 49.8598L45.2866 37.5653Z" fill="#F3AB52"/>
<path d="M43.0441 47.622C46.4386 44.2275 47.4393 39.7245 45.2792 37.5644C43.119 35.4042 38.6161 36.4049 35.2216 39.7994C31.827 43.194 30.8263 47.6969 32.9865 49.8571C35.1466 52.0172 39.6496 51.0165 43.0441 47.622Z" fill="#F3C35D"/>
<path d="M41.7299 46.3079C44.2021 43.8356 45.0435 40.6687 43.6091 39.2343C42.1747 37.7999 39.0077 38.6412 36.5355 41.1135C34.0632 43.5857 33.2219 46.7527 34.6563 48.1871C36.0907 49.6215 39.2576 48.7801 41.7299 46.3079Z" fill="#FFE883"/>
<path d="M36.3455 47.6241L36.455 47.5146C37.3496 47.9175 38.4713 47.7337 39.2445 46.9611C40.4724 45.7331 40.2231 44.5168 39.8935 43.4749C39.5994 42.5448 39.5964 42.1381 40.1529 41.5817C40.5187 41.2158 41.0666 41.1696 41.3754 41.4775C41.6826 41.7847 41.637 42.3334 41.2704 42.7C40.9617 43.0087 40.9617 43.5089 41.2704 43.8175C41.5791 44.1262 42.0793 44.1262 42.3879 43.8175C43.1624 43.0437 43.3461 41.922 42.9426 41.0277L43.0516 40.9187C43.3604 40.6099 43.3604 40.1098 43.0516 39.8011C42.7429 39.4924 42.2427 39.4924 41.9341 39.8011L41.8247 39.9105C40.9296 39.5071 39.8079 39.6915 39.0353 40.4641C37.8097 41.6905 38.0581 42.906 38.3854 43.9502C38.6811 44.8826 38.6834 45.2855 38.1268 45.8434C37.761 46.2086 37.2123 46.2555 36.9043 45.9469C36.7646 45.8079 36.6852 45.6112 36.7029 45.3935C36.7137 45.1497 36.8225 44.912 37.0093 44.7252C37.3181 44.4164 37.3181 43.9163 37.0093 43.6076C36.7006 43.299 36.2004 43.2989 35.8918 43.6076C35.4249 44.0738 35.1524 44.6835 35.1239 45.3233C35.1223 45.3611 35.1216 45.3981 35.1216 45.4359C35.1216 45.7783 35.1985 46.1032 35.3337 46.4007L35.2281 46.5064C35.0737 46.6607 34.9966 46.863 34.9966 47.0652C34.9966 47.2674 35.0737 47.4696 35.2281 47.624C35.5367 47.9328 36.0368 47.9328 36.3455 47.6241Z" fill="#D6A030"/>
</g>
</g>
<defs>
<linearGradient id="paint0_linear_718_3815" x1="4.92258" y1="0.445581" x2="20.8832" y2="30.2196" gradientUnits="userSpaceOnUse">
<stop stop-color="#FFA7B4"/>
<stop offset="1" stop-color="#ED7784"/>
</linearGradient>
<linearGradient id="paint1_linear_718_3815" x1="10.6446" y1="21.6497" x2="8.69373" y2="-6.69454" gradientUnits="userSpaceOnUse">
<stop stop-color="#889ABE"/>
<stop offset="1" stop-color="#5D6997"/>
</linearGradient>
<linearGradient id="paint2_linear_718_3815" x1="18.6316" y1="25.7213" x2="22.3545" y2="-7.93628" gradientUnits="userSpaceOnUse">
<stop offset="0.414583" stop-color="#485686"/>
<stop offset="1" stop-color="#61729E"/>
</linearGradient>
<linearGradient id="paint3_linear_718_3815" x1="15.8555" y1="14.7041" x2="15.8555" y2="43.8838" gradientUnits="userSpaceOnUse">
<stop stop-color="#96A4C0"/>
<stop offset="1" stop-color="#627197"/>
</linearGradient>
<linearGradient id="paint4_linear_718_3815" x1="22.0335" y1="13.8814" x2="22.0335" y2="50.1543" gradientUnits="userSpaceOnUse">
<stop stop-color="#7A8AA9"/>
<stop offset="1" stop-color="#445379"/>
</linearGradient>
<clipPath id="clip0_718_3815">
<rect width="60" height="60" fill="white"/>
</clipPath>
<clipPath id="clip1_718_3815">
<rect width="43.9995" height="53.9349" fill="white" transform="translate(0 4.57153)"/>
</clipPath>
<clipPath id="clip2_718_3815">
<rect width="49" height="49" fill="white" transform="translate(15.9995 2)"/>
</clipPath>
</defs>
</svg>
