<svg width="124" height="48" viewBox="0 0 124 48" fill="none" xmlns="http://www.w3.org/2000/svg">
<g clip-path="url(#clip0_206_5030)">
<path d="M46.211 14.249H39.372C38.904 14.249 38.506 14.589 38.433 15.051L35.667 32.588C35.612 32.934 35.88 33.246 36.231 33.246H39.496C39.964 33.246 40.362 32.906 40.435 32.443L41.181 27.713C41.253 27.25 41.652 26.91 42.119 26.91H44.284C48.789 26.91 51.389 24.73 52.068 20.41C52.374 18.52 52.081 17.035 51.196 15.995C50.224 14.853 48.5 14.249 46.211 14.249ZM47 20.654C46.626 23.108 44.751 23.108 42.938 23.108H41.906L42.63 18.525C42.673 18.248 42.913 18.044 43.193 18.044H43.666C44.901 18.044 46.066 18.044 46.668 18.748C47.027 19.168 47.137 19.792 47 20.654Z" fill="#96B0FF"/>
<path d="M66.654 20.5751H63.379C63.1 20.5751 62.859 20.7791 62.816 21.0561L62.671 21.9721L62.442 21.6401C61.733 20.6111 60.152 20.2671 58.574 20.2671C54.955 20.2671 51.864 23.0081 51.262 26.8531C50.949 28.7711 51.394 30.6051 52.482 31.8841C53.48 33.0601 54.908 33.5501 56.607 33.5501C59.523 33.5501 61.14 31.6751 61.14 31.6751L60.994 32.5851C60.939 32.9331 61.207 33.2451 61.556 33.2451H64.506C64.975 33.2451 65.371 32.9051 65.445 32.4421L67.215 21.2331C67.271 20.8881 67.004 20.5751 66.654 20.5751ZM62.089 26.9491C61.773 28.8201 60.288 30.0761 58.394 30.0761C57.443 30.0761 56.683 29.7711 56.195 29.1931C55.711 28.6191 55.527 27.8021 55.681 26.8921C55.976 25.0371 57.486 23.7401 59.351 23.7401C60.281 23.7401 61.037 24.0491 61.535 24.6321C62.034 25.2211 62.232 26.0431 62.089 26.9491Z" fill="#96B0FF"/>
<path d="M84.096 20.5752H80.805C80.491 20.5752 80.196 20.7312 80.018 20.9922L75.479 27.6782L73.555 21.2532C73.434 20.8512 73.063 20.5752 72.643 20.5752H69.409C69.016 20.5752 68.743 20.9592 68.868 21.3292L72.493 31.9672L69.085 36.7782C68.817 37.1572 69.087 37.6782 69.55 37.6782H72.837C73.149 37.6782 73.441 37.5262 73.618 37.2702L84.564 21.4702C84.826 21.0922 84.557 20.5752 84.096 20.5752Z" fill="#96B0FF"/>
<path d="M94.992 14.249H88.152C87.685 14.249 87.287 14.589 87.214 15.051L84.448 32.588C84.393 32.934 84.661 33.246 85.01 33.246H88.52C88.846 33.246 89.125 33.008 89.176 32.684L89.961 27.713C90.033 27.25 90.432 26.91 90.899 26.91H93.063C97.569 26.91 100.168 24.73 100.848 20.41C101.155 18.52 100.86 17.035 99.975 15.995C99.004 14.853 97.281 14.249 94.992 14.249ZM95.781 20.654C95.408 23.108 93.533 23.108 91.719 23.108H90.688L91.413 18.525C91.456 18.248 91.694 18.044 91.975 18.044H92.448C93.682 18.044 94.848 18.044 95.45 18.748C95.809 19.168 95.918 19.792 95.781 20.654Z" fill="#8DDBFF"/>
<path d="M115.434 20.5751H112.161C111.88 20.5751 111.641 20.7791 111.599 21.0561L111.454 21.9721L111.224 21.6401C110.515 20.6111 108.935 20.2671 107.357 20.2671C103.738 20.2671 100.648 23.0081 100.046 26.8531C99.734 28.7711 100.177 30.6051 101.265 31.8841C102.265 33.0601 103.691 33.5501 105.39 33.5501C108.306 33.5501 109.923 31.6751 109.923 31.6751L109.777 32.5851C109.722 32.9331 109.99 33.2451 110.341 33.2451H113.29C113.757 33.2451 114.155 32.9051 114.228 32.4421L115.999 21.2331C116.053 20.8881 115.785 20.5751 115.434 20.5751ZM110.869 26.9491C110.555 28.8201 109.068 30.0761 107.174 30.0761C106.225 30.0761 105.463 29.7711 104.975 29.1931C104.491 28.6191 104.309 27.8021 104.461 26.8921C104.758 25.0371 106.266 23.7401 108.131 23.7401C109.061 23.7401 109.817 24.0491 110.315 24.6321C110.816 25.2211 111.014 26.0431 110.869 26.9491Z" fill="#8DDBFF"/>
<path d="M119.295 14.73L116.488 32.588C116.433 32.934 116.701 33.246 117.05 33.246H119.872C120.341 33.246 120.739 32.906 120.811 32.443L123.579 14.907C123.634 14.561 123.366 14.248 123.017 14.248H119.857C119.578 14.249 119.338 14.453 119.295 14.73Z" fill="#8DDBFF"/>
<path d="M7.266 36.6539L7.789 33.3319L6.624 33.3049H1.061L4.927 8.79193C4.939 8.71793 4.978 8.64893 5.035 8.59993C5.092 8.55093 5.165 8.52393 5.241 8.52393H14.621C17.735 8.52393 19.884 9.17193 21.006 10.4509C21.532 11.0509 21.867 11.6779 22.029 12.3679C22.199 13.0919 22.202 13.9569 22.036 15.0119L22.024 15.0889V15.7649L22.55 16.0629C22.993 16.2979 23.345 16.5669 23.615 16.8749C24.065 17.3879 24.356 18.0399 24.479 18.8129C24.606 19.6079 24.564 20.5539 24.356 21.6249C24.116 22.8569 23.728 23.9299 23.204 24.8079C22.722 25.6169 22.108 26.2879 21.379 26.8079C20.683 27.3019 19.856 27.6769 18.921 27.9169C18.015 28.1529 16.982 28.2719 15.849 28.2719H15.119C14.597 28.2719 14.09 28.4599 13.692 28.7969C13.293 29.1409 13.029 29.6109 12.948 30.1249L12.893 30.4239L11.969 36.2789L11.927 36.4939C11.916 36.5619 11.897 36.5959 11.869 36.6189C11.844 36.6399 11.808 36.6539 11.773 36.6539H7.266Z" fill="#96B0FF"/>
<path d="M23.048 15.167C23.02 15.346 22.988 15.529 22.952 15.717C21.715 22.068 17.483 24.262 12.078 24.262H9.32599C8.66499 24.262 8.10799 24.742 8.00499 25.394L6.59599 34.33L6.19699 36.863C6.12999 37.291 6.45999 37.677 6.89199 37.677H11.773C12.351 37.677 12.842 37.257 12.933 36.687L12.981 36.439L13.9 30.607L13.959 30.287C14.049 29.715 14.541 29.295 15.119 29.295H15.849C20.578 29.295 24.28 27.375 25.362 21.819C25.814 19.498 25.58 17.56 24.384 16.197C24.022 15.786 23.573 15.445 23.048 15.167Z" fill="#8DDBFF"/>
<path d="M21.754 14.651C21.565 14.596 21.37 14.546 21.17 14.501C20.969 14.457 20.763 14.418 20.551 14.384C19.809 14.264 18.996 14.207 18.125 14.207H10.773C10.592 14.207 10.42 14.248 10.266 14.322C9.927 14.485 9.67501 14.806 9.61401 15.199L8.05 25.105L8.005 25.394C8.108 24.742 8.665 24.262 9.326 24.262H12.078C17.483 24.262 21.715 22.067 22.952 15.717C22.989 15.529 23.02 15.346 23.048 15.167C22.735 15.001 22.396 14.859 22.031 14.738C21.941 14.708 21.848 14.679 21.754 14.651Z" fill="#5E6CB4"/>
<path d="M9.61399 15.199C9.67499 14.806 9.92699 14.485 10.266 14.323C10.421 14.249 10.592 14.208 10.773 14.208H18.125C18.996 14.208 19.809 14.265 20.551 14.385C20.763 14.419 20.969 14.458 21.17 14.502C21.37 14.547 21.565 14.597 21.754 14.652C21.848 14.68 21.941 14.709 22.032 14.738C22.397 14.859 22.736 15.002 23.049 15.167C23.417 12.82 23.046 11.222 21.777 9.775C20.378 8.182 17.853 7.5 14.622 7.5H5.24199C4.58199 7.5 4.01899 7.98 3.91699 8.633L0.00998882 33.398C-0.0670112 33.888 0.310989 34.33 0.804989 34.33H6.59599L8.04999 25.105L9.61399 15.199Z" fill="#96B0FF"/>
</g>
<defs>
<clipPath id="clip0_206_5030">
<rect width="124" height="33" fill="white" transform="translate(0 7.5)"/>
</clipPath>
</defs>
</svg>
