<svg width="121" height="48" viewBox="0 0 121 48" fill="none" xmlns="http://www.w3.org/2000/svg">
<g clip-path="url(#clip0_206_5065)">
<path fill-rule="evenodd" clip-rule="evenodd" d="M120.862 19.8565C120.862 21.7581 119.312 23.2999 117.401 23.2999C115.488 23.2999 113.939 21.7581 113.939 19.8565C113.939 17.9548 115.488 16.4131 117.401 16.4131C119.312 16.4131 120.862 17.9548 120.862 19.8565Z" fill="#7887E6"/>
<path fill-rule="evenodd" clip-rule="evenodd" d="M120.862 30.6328C120.862 32.5345 119.312 34.0762 117.401 34.0762C115.488 34.0762 113.939 32.5345 113.939 30.6328C113.939 28.7312 115.488 27.1895 117.401 27.1895C119.312 27.1895 120.862 28.7312 120.862 30.6328Z" fill="#FF5073"/>
<path fill-rule="evenodd" clip-rule="evenodd" d="M8.21273 21.3734H5.4536V14.826H8.21273C10.176 14.826 11.2725 16.1807 11.2725 18.1332C11.2725 20.2179 10.0419 21.3734 8.21273 21.3734ZM8.81259 10.8561H-0.00012207V33.6791H5.4536V25.3433H8.81259C13.2344 25.3433 16.5611 22.5987 16.5611 17.934C16.5611 13.8994 14.0658 10.8561 8.81259 10.8561ZM45.2388 16.8099L41.5799 26.8898L37.3789 16.8099H31.9321L39.1056 32.8852L36.868 38.4118H41.9312L50.5252 16.8099H45.2388ZM84.5414 16.1151V16.8099H81.7144V20.4152H84.5414V33.6791H89.8288V20.4152H93.487V16.8099H89.8288V15.9168C89.8288 14.4283 90.4275 13.3698 92.0569 13.3698C92.5559 13.3698 93.1878 13.4692 93.6199 13.6014V9.83065C92.8881 9.63216 92.0569 9.5 91.0926 9.5C86.8027 9.5 84.5414 12.1129 84.5414 16.1151ZM74.8698 29.9745C74.371 30.3384 73.6063 30.6362 72.7748 30.6362C71.4446 30.6362 70.5467 29.8754 70.5467 28.6514C70.5467 27.2623 71.6473 25.9033 74.8698 26.4353V29.9745ZM73.8388 16.4132C70.5467 16.4132 67.9527 17.4386 66.3565 18.4308L67.8199 21.4409C68.7842 21.0109 70.8127 20.25 72.542 20.25C73.7724 20.25 74.8698 20.68 74.8698 21.97V23.0946C67.5357 22.5757 65.4276 25.7849 65.4276 28.7486C65.4276 31.6448 67.8928 34.0761 71.1375 34.0761C72.4178 34.0761 73.807 33.5947 74.8698 32.9313V33.6791H80.1906V21.937C80.1906 18.1332 77.763 16.4132 73.8388 16.4132ZM26.4834 29.9745C25.9849 30.3384 25.2199 30.6362 24.3884 30.6362C23.0582 30.6362 22.1603 29.8754 22.1603 28.6514C22.1603 27.2623 23.2609 25.9033 26.4834 26.4353V29.9745ZM25.2541 16.4132C21.9617 16.4132 19.368 17.4386 17.7716 18.4308L19.2349 21.4409C20.1992 21.0109 22.228 20.25 23.9571 20.25C25.1876 20.25 26.2851 20.68 26.2851 21.97V23.0946C18.9507 22.5757 16.8428 25.7849 16.8428 28.7486C16.8428 31.6448 19.3078 34.0761 22.5525 34.0761C23.833 34.0761 25.222 33.5947 26.2851 32.9313V33.6791H31.6059V21.937C31.6059 18.1332 29.1783 16.4132 25.2541 16.4132ZM55.9995 21.573C55.9995 20.7793 56.7975 20.283 58.1277 20.283C59.5243 20.283 60.9874 20.7793 62.0519 21.2424L63.5482 17.7693C62.1515 17.0747 60.0231 16.4132 57.8617 16.4132C53.9043 16.4132 50.7119 18.1993 50.7119 21.7715C50.7119 27.3947 58.6929 26.3692 58.6929 28.8499C58.6929 29.776 57.7618 30.239 56.1988 30.239C54.6026 30.239 53.0728 29.7099 51.8757 29.1145L50.1796 32.5215C52.1749 33.5797 54.5029 34.0761 56.6646 34.0761C60.5221 34.0761 63.8474 32.0915 63.8474 28.4529C63.8474 22.8961 55.9995 23.8222 55.9995 21.573ZM102.283 20.1178C103.746 20.1178 104.91 21.2754 105.11 23.5246H99.4562C99.6555 21.2754 100.82 20.1178 102.283 20.1178ZM110.483 26.3031V24.9853C110.483 20.0386 107.005 16.4132 102.283 16.4132C97.5606 16.4132 93.9026 20.1508 93.9026 25.344C93.9026 30.669 97.3613 34.0761 102.881 34.0761C104.421 34.0761 107.465 33.7996 109.812 32.1835L108.328 28.9043C106.738 29.8019 105.125 30.206 103.68 30.206C103.554 30.206 103.431 30.2012 103.308 30.1944C103.281 30.1927 103.253 30.191 103.226 30.1891C103.11 30.1808 102.996 30.1696 102.884 30.1547C102.858 30.1513 102.833 30.1468 102.808 30.1432C102.717 30.1297 102.627 30.1138 102.539 30.0957C102.508 30.0893 102.476 30.0838 102.446 30.0769C102.355 30.0565 102.266 30.0322 102.178 30.0066C102.13 29.9925 102.083 29.9783 102.037 29.9631C101.974 29.9424 101.912 29.9196 101.85 29.896C101.78 29.8689 101.712 29.8406 101.646 29.8105C101.626 29.8014 101.606 29.7919 101.587 29.7826C101.479 29.7313 101.375 29.6764 101.276 29.6172C101.273 29.6155 101.271 29.6136 101.268 29.612C101.047 29.4786 100.849 29.326 100.673 29.157C100.67 29.1544 100.667 29.152 100.665 29.1494C100.592 29.0795 100.524 29.0063 100.458 28.931C100.433 28.9017 100.408 28.8725 100.383 28.842C100.345 28.7955 100.309 28.7482 100.274 28.7001C100.214 28.6179 100.156 28.5345 100.102 28.4453C100.101 28.4427 100.099 28.4403 100.097 28.4377C99.7619 27.8767 99.5392 27.1705 99.4562 26.3034V26.3031H110.483Z" fill="#DFCFFF"/>
</g>
<defs>
<clipPath id="clip0_206_5065">
<rect width="121" height="29" fill="white" transform="translate(0 9.5)"/>
</clipPath>
</defs>
</svg>
