<svg width="54" height="54" viewBox="0 0 54 54" fill="none" xmlns="http://www.w3.org/2000/svg">
<g clip-path="url(#clip0_741_10225)">
<path d="M48.9425 17.7796C46.0772 14.9142 42.2391 13.6153 38.4914 13.8818C36.999 13.9879 35.7289 12.809 35.7289 11.3127H18.2711C18.2711 12.809 17.0011 13.9879 15.5085 13.8818C11.7608 13.6153 7.92279 14.9142 5.05747 17.7796C-0.185823 23.0229 -0.185823 31.5241 5.05747 36.7674L17.0392 48.7491C22.5404 54.2503 31.4596 54.2503 36.9607 48.7491L48.9425 36.7674C54.1858 31.5241 54.1858 23.023 48.9425 17.7796Z" fill="url(#paint0_linear_741_10225)"/>
<path d="M48.9425 17.7796C46.0772 14.9142 42.2391 13.6153 38.4914 13.8818C36.999 13.9879 35.7289 12.809 35.7289 11.3127H18.2711C18.2711 12.809 17.0011 13.9879 15.5085 13.8818C11.7608 13.6153 7.92279 14.9142 5.05747 17.7796C-0.185823 23.0229 -0.185823 31.5241 5.05747 36.7674L17.0392 48.7491C22.5404 54.2503 31.4596 54.2503 36.9607 48.7491L48.9425 36.7674C54.1858 31.5241 54.1858 23.023 48.9425 17.7796Z" fill="url(#paint1_linear_741_10225)"/>
<path d="M48.9428 17.7797C46.0775 14.9143 42.2395 13.6153 38.4917 13.8819C36.9993 13.988 35.7292 12.8091 35.7292 11.3128L18.2718 11.3127C18.2718 11.6517 18.2069 11.9743 18.0881 12.2686C17.7076 13.2224 16.7731 13.8891 15.6965 13.8891C15.6336 13.8891 15.5717 13.886 15.5088 13.882C13.4976 13.7389 11.4601 14.0464 9.56055 14.8064H37.6425C40.3334 14.8064 42.9315 15.845 44.8421 17.74C44.8554 17.7532 44.8687 17.7665 44.882 17.7797C50.1252 23.023 50.1252 31.5241 44.882 36.7675L32.9002 48.7492C30.6674 50.982 27.8716 52.3084 24.9699 52.7288C29.2176 53.3441 33.6926 52.0177 36.9611 48.7492L48.9428 36.7675C54.1861 31.5242 54.1861 23.0231 48.9428 17.7797Z" fill="url(#paint2_linear_741_10225)"/>
<path d="M48.9428 17.7797C46.0775 14.9143 42.2395 13.6153 38.4917 13.8819C36.9993 13.988 35.7292 12.8091 35.7292 11.3128L18.2718 11.3127C18.2718 11.6517 18.2069 11.9743 18.0881 12.2686C17.7076 13.2224 16.7731 13.8891 15.6965 13.8891C15.6336 13.8891 15.5717 13.886 15.5088 13.882C13.4976 13.7389 11.4601 14.0464 9.56055 14.8064H37.6425C40.3334 14.8064 42.9315 15.845 44.8421 17.74C44.8554 17.7532 44.8687 17.7665 44.882 17.7797C50.1252 23.023 50.1252 31.5241 44.882 36.7675L32.9002 48.7492C30.6674 50.982 27.8716 52.3084 24.9699 52.7288C29.2176 53.3441 33.6926 52.0177 36.9611 48.7492L48.9428 36.7675C54.1861 31.5242 54.1861 23.0231 48.9428 17.7797Z" fill="black" fill-opacity="0.1"/>
<path d="M29.4638 20.5414L27.6561 22.3491C27.2941 22.7111 26.7072 22.7111 26.3453 22.3491L24.5376 20.5414C20.1667 16.1706 13.0801 16.1706 8.70929 20.5414C4.33844 24.9123 4.33844 31.9989 8.70929 36.3697L18.6973 46.3578C23.2831 50.9436 30.7182 50.9436 35.304 46.3578L45.2921 36.3697C49.6629 31.9989 49.6629 24.9123 45.2921 20.5414C40.9211 16.1706 33.8346 16.1706 29.4638 20.5414Z" fill="url(#paint3_linear_741_10225)"/>
<path d="M29.4638 20.5414L27.6561 22.3491C27.2941 22.7111 26.7072 22.7111 26.3453 22.3491L24.5376 20.5414C20.1667 16.1706 13.0801 16.1706 8.70929 20.5414C4.33844 24.9123 4.33844 31.9989 8.70929 36.3697L18.6973 46.3578C23.2831 50.9436 30.7182 50.9436 35.304 46.3578L45.2921 36.3697C49.6629 31.9989 49.6629 24.9123 45.2921 20.5414C40.9211 16.1706 33.8346 16.1706 29.4638 20.5414Z" fill="url(#paint4_linear_741_10225)"/>
<path d="M29.4638 20.5414L27.6561 22.3491C27.2941 22.7111 26.7072 22.7111 26.3453 22.3491L24.5376 20.5414C20.1667 16.1706 13.0801 16.1706 8.70929 20.5414C4.33844 24.9123 4.33844 31.9989 8.70929 36.3697L18.6973 46.3578C23.2831 50.9436 30.7182 50.9436 35.304 46.3578L45.2921 36.3697C49.6629 31.9989 49.6629 24.9123 45.2921 20.5414C40.9211 16.1706 33.8346 16.1706 29.4638 20.5414Z" fill="url(#paint5_linear_741_10225)"/>
<path d="M45.292 20.5414C42.5878 17.8372 38.8444 16.8069 35.3475 17.4487C37.5028 17.8442 39.5645 18.8746 41.2312 20.5414C45.602 24.9122 45.602 31.9988 41.2312 36.3697L31.2431 46.3577C29.4687 48.1321 27.2677 49.2194 24.9702 49.6206C28.6104 50.2563 32.4925 49.1692 35.304 46.3577L45.292 36.3697C49.6629 31.9988 49.6629 24.9122 45.292 20.5414Z" fill="url(#paint6_linear_741_10225)"/>
<path d="M45.292 20.5414C42.5878 17.8372 38.8444 16.8069 35.3475 17.4487C37.5028 17.8442 39.5645 18.8746 41.2312 20.5414C45.602 24.9122 45.602 31.9988 41.2312 36.3697L31.2431 46.3577C29.4687 48.1321 27.2677 49.2194 24.9702 49.6206C28.6104 50.2563 32.4925 49.1692 35.304 46.3577L45.292 36.3697C49.6629 31.9988 49.6629 24.9122 45.292 20.5414Z" fill="url(#paint7_linear_741_10225)"/>
<path d="M45.292 20.5414C42.5878 17.8372 38.8444 16.8069 35.3475 17.4487C37.5028 17.8442 39.5645 18.8746 41.2312 20.5414C45.602 24.9122 45.602 31.9988 41.2312 36.3697L31.2431 46.3577C29.4687 48.1321 27.2677 49.2194 24.9702 49.6206C28.6104 50.2563 32.4925 49.1692 35.304 46.3577L45.292 36.3697C49.6629 31.9988 49.6629 24.9122 45.292 20.5414Z" fill="url(#paint8_linear_741_10225)"/>
<path d="M33.2994 9.20744H20.7045L19.3558 4.6236C18.8417 2.87598 20.1517 1.125 21.9734 1.125H32.0305C33.8521 1.125 35.1622 2.87598 34.6481 4.6236L33.2994 9.20744Z" fill="url(#paint9_linear_741_10225)"/>
<path d="M33.2994 9.20744H20.7045L19.3558 4.6236C18.8417 2.87598 20.1517 1.125 21.9734 1.125H32.0305C33.8521 1.125 35.1622 2.87598 34.6481 4.6236L33.2994 9.20744Z" fill="url(#paint10_linear_741_10225)"/>
<path d="M33.2994 9.20744H20.7045L19.3558 4.6236C18.8417 2.87598 20.1517 1.125 21.9734 1.125H32.0305C33.8521 1.125 35.1622 2.87598 34.6481 4.6236L33.2994 9.20744Z" fill="url(#paint11_linear_741_10225)"/>
<path d="M33.2994 9.20744H20.7045L19.3558 4.6236C18.8417 2.87598 20.1517 1.125 21.9734 1.125H32.0305C33.8521 1.125 35.1622 2.87598 34.6481 4.6236L33.2994 9.20744Z" fill="url(#paint12_linear_741_10225)"/>
<path d="M32.0291 1.125H27.9683C29.79 1.125 31.0999 2.87598 30.5858 4.6236L29.2372 9.20744H33.298L34.6467 4.6236C35.1608 2.87598 33.8507 1.125 32.0291 1.125V1.125Z" fill="url(#paint13_linear_741_10225)"/>
<path d="M32.0291 1.125H27.9683C29.79 1.125 31.0999 2.87598 30.5858 4.6236L29.2372 9.20744H33.298L34.6467 4.6236C35.1608 2.87598 33.8507 1.125 32.0291 1.125V1.125Z" fill="url(#paint14_linear_741_10225)"/>
<path d="M32.0291 1.125H27.9683C29.79 1.125 31.0999 2.87598 30.5858 4.6236L29.2372 9.20744H33.298L34.6467 4.6236C35.1608 2.87598 33.8507 1.125 32.0291 1.125V1.125Z" fill="url(#paint15_linear_741_10225)"/>
<path d="M32.0291 1.125H27.9683C29.79 1.125 31.0999 2.87598 30.5858 4.6236L29.2372 9.20744H33.298L34.6467 4.6236C35.1608 2.87598 33.8507 1.125 32.0291 1.125V1.125Z" fill="url(#paint16_linear_741_10225)"/>
<path d="M36.3421 12.2688H17.6608C16.1986 12.2688 15.0132 11.0834 15.0132 9.6212C15.0132 8.15901 16.1986 6.97363 17.6608 6.97363H36.3422C37.8044 6.97363 38.9898 8.15901 38.9898 9.6212C38.9897 11.0834 37.8043 12.2688 36.3421 12.2688Z" fill="url(#paint17_linear_741_10225)"/>
<path d="M36.3421 12.2688H17.6608C16.1986 12.2688 15.0132 11.0834 15.0132 9.6212C15.0132 8.15901 16.1986 6.97363 17.6608 6.97363H36.3422C37.8044 6.97363 38.9898 8.15901 38.9898 9.6212C38.9897 11.0834 37.8043 12.2688 36.3421 12.2688Z" fill="url(#paint18_linear_741_10225)"/>
<path d="M36.3421 12.2688H17.6608C16.1986 12.2688 15.0132 11.0834 15.0132 9.6212C15.0132 8.15901 16.1986 6.97363 17.6608 6.97363H36.3422C37.8044 6.97363 38.9898 8.15901 38.9898 9.6212C38.9897 11.0834 37.8043 12.2688 36.3421 12.2688Z" fill="url(#paint19_linear_741_10225)"/>
<path d="M36.3431 6.97363H32.2822C33.7444 6.97363 34.9298 8.15901 34.9298 9.6212C34.9298 11.0834 33.7444 12.2688 32.2822 12.2688H36.3431C37.8053 12.2688 38.9907 11.0834 38.9907 9.6212C38.9907 8.15901 37.8053 6.97363 36.3431 6.97363Z" fill="url(#paint20_linear_741_10225)"/>
<path d="M36.3431 6.97363H32.2822C33.7444 6.97363 34.9298 8.15901 34.9298 9.6212C34.9298 11.0834 33.7444 12.2688 32.2822 12.2688H36.3431C37.8053 12.2688 38.9907 11.0834 38.9907 9.6212C38.9907 8.15901 37.8053 6.97363 36.3431 6.97363Z" fill="black" fill-opacity="0.1"/>
</g>
<defs>
<linearGradient id="paint0_linear_741_10225" x1="0.869675" y1="32.0939" x2="52.7515" y2="32.0939" gradientUnits="userSpaceOnUse">
<stop stop-color="#F8F6F7"/>
<stop offset="0.1788" stop-color="#F8F6F7"/>
<stop offset="1" stop-color="#E7E6F5"/>
</linearGradient>
<linearGradient id="paint1_linear_741_10225" x1="27" y1="14.2516" x2="27" y2="53.0647" gradientUnits="userSpaceOnUse">
<stop stop-color="#C9CEFF"/>
<stop offset="0.5" stop-color="#C8E5FF"/>
<stop offset="1" stop-color="#C4EAFF"/>
</linearGradient>
<linearGradient id="paint2_linear_741_10225" x1="31.2179" y1="14.2516" x2="31.2179" y2="53.0647" gradientUnits="userSpaceOnUse">
<stop stop-color="#C9CEFF"/>
<stop offset="0.5" stop-color="#C8E5FF"/>
<stop offset="1" stop-color="#C4EAFF"/>
</linearGradient>
<linearGradient id="paint3_linear_741_10225" x1="5.21839" y1="33.5302" x2="48.4673" y2="33.5302" gradientUnits="userSpaceOnUse">
<stop stop-color="#FE7D43"/>
<stop offset="0.1648" stop-color="#FE7645"/>
<stop offset="0.408" stop-color="#FE624C"/>
<stop offset="0.6488" stop-color="#FD4755"/>
<stop offset="0.8234" stop-color="#F23543"/>
<stop offset="1" stop-color="#E41F2D"/>
</linearGradient>
<linearGradient id="paint4_linear_741_10225" x1="26.5663" y1="18.2449" x2="26.7045" y2="49.6781" gradientUnits="userSpaceOnUse">
<stop stop-color="#FFA978"/>
<stop offset="1" stop-color="#D87761"/>
</linearGradient>
<linearGradient id="paint5_linear_741_10225" x1="60.187" y1="27" x2="28.6596" y2="-1.98934" gradientUnits="userSpaceOnUse">
<stop stop-color="#D33B4B"/>
<stop offset="1" stop-color="#F4495A"/>
</linearGradient>
<linearGradient id="paint6_linear_741_10225" x1="8.8374" y1="33.5302" x2="38.9412" y2="33.5302" gradientUnits="userSpaceOnUse">
<stop stop-color="#FE7D43"/>
<stop offset="0.1648" stop-color="#FE7645"/>
<stop offset="0.408" stop-color="#FE624C"/>
<stop offset="0.6488" stop-color="#FD4755"/>
<stop offset="0.8234" stop-color="#F23543"/>
<stop offset="1" stop-color="#E41F2D"/>
</linearGradient>
<linearGradient id="paint7_linear_741_10225" x1="36.5326" y1="18.2455" x2="36.7852" y2="49.6761" gradientUnits="userSpaceOnUse">
<stop stop-color="#EE7937"/>
<stop offset="1" stop-color="#EB684C"/>
</linearGradient>
<linearGradient id="paint8_linear_741_10225" x1="26.8086" y1="53.7399" x2="59.5932" y2="65.9717" gradientUnits="userSpaceOnUse">
<stop stop-color="#B92B3A"/>
<stop offset="1" stop-color="#D83142"/>
</linearGradient>
<linearGradient id="paint9_linear_741_10225" x1="19.747" y1="5.16617" x2="31.5186" y2="5.16617" gradientUnits="userSpaceOnUse">
<stop stop-color="#FFDCBD"/>
<stop offset="0.0028" stop-color="#FFDCBD"/>
<stop offset="1" stop-color="#FFA9B1"/>
</linearGradient>
<linearGradient id="paint10_linear_741_10225" x1="26.8457" y1="1.36887" x2="26.8694" y2="9.17795" gradientUnits="userSpaceOnUse">
<stop stop-color="#FFA978"/>
<stop offset="1" stop-color="#D87761"/>
</linearGradient>
<linearGradient id="paint11_linear_741_10225" x1="20.452" y1="10.1871" x2="35.0164" y2="8.1382" gradientUnits="userSpaceOnUse">
<stop stop-color="#D33B4B"/>
<stop offset="1" stop-color="#F4495A"/>
</linearGradient>
<linearGradient id="paint12_linear_741_10225" x1="38.9394" y1="3.54391" x2="31.3907" y2="-6.50619" gradientUnits="userSpaceOnUse">
<stop stop-color="#D33B4B"/>
<stop offset="1" stop-color="#F4495A"/>
</linearGradient>
<linearGradient id="paint13_linear_741_10225" x1="14.0632" y1="5.16617" x2="34.1294" y2="5.16617" gradientUnits="userSpaceOnUse">
<stop stop-color="#FFC2B5"/>
<stop offset="0.2441" stop-color="#FFBBB3"/>
<stop offset="0.6097" stop-color="#FFA6AF"/>
<stop offset="1" stop-color="#FF89A8"/>
</linearGradient>
<linearGradient id="paint14_linear_741_10225" x1="31.2954" y1="1.36887" x2="31.3496" y2="9.17764" gradientUnits="userSpaceOnUse">
<stop stop-color="#EE7937"/>
<stop offset="1" stop-color="#EB684C"/>
</linearGradient>
<linearGradient id="paint15_linear_741_10225" x1="28.4973" y1="10.1871" x2="34.9728" y2="9.78845" gradientUnits="userSpaceOnUse">
<stop stop-color="#B92B3A"/>
<stop offset="1" stop-color="#D83142"/>
</linearGradient>
<linearGradient id="paint16_linear_741_10225" x1="28.4973" y1="10.1871" x2="37.5533" y2="14.1006" gradientUnits="userSpaceOnUse">
<stop stop-color="#B92B3A"/>
<stop offset="1" stop-color="#D83142"/>
</linearGradient>
<linearGradient id="paint17_linear_741_10225" x1="16.557" y1="9.6212" x2="37.5801" y2="9.6212" gradientUnits="userSpaceOnUse">
<stop stop-color="#F8F6F7"/>
<stop offset="0.1788" stop-color="#F8F6F7"/>
<stop offset="1" stop-color="#E7E6F5"/>
</linearGradient>
<linearGradient id="paint18_linear_741_10225" x1="27.0015" y1="7.34805" x2="27.0015" y2="12.2929" gradientUnits="userSpaceOnUse">
<stop stop-color="#9BA4FF"/>
<stop offset="0.5" stop-color="#B4DCFF"/>
<stop offset="1" stop-color="#EBF8FF"/>
</linearGradient>
<linearGradient id="paint19_linear_741_10225" x1="27.0015" y1="7.34805" x2="27.0015" y2="12.2929" gradientUnits="userSpaceOnUse">
<stop stop-color="#C9CEFF"/>
<stop offset="0.5" stop-color="#C8E5FF"/>
<stop offset="1" stop-color="#C4EAFF"/>
</linearGradient>
<linearGradient id="paint20_linear_741_10225" x1="35.6364" y1="7.34805" x2="35.6364" y2="12.2929" gradientUnits="userSpaceOnUse">
<stop stop-color="#C9CEFF"/>
<stop offset="0.5" stop-color="#C8E5FF"/>
<stop offset="1" stop-color="#C4EAFF"/>
</linearGradient>
<clipPath id="clip0_741_10225">
<rect width="51.75" height="51.75" fill="white" transform="translate(1.125 1.125)"/>
</clipPath>
</defs>
</svg>
