<svg width="72" height="72" viewBox="0 0 72 72" fill="none" xmlns="http://www.w3.org/2000/svg">
<path d="M55.7434 12.8801C46.5507 12.8801 39.2923 20.3334 39.2923 29.5261C39.2923 38.7188 46.8422 46.172 56.0349 46.172C56.1268 46.172 56.2655 46.1596 56.3575 46.158C52.7228 49.0524 48.1576 50.7964 43.1607 50.7964C40.8618 50.7964 39.0117 52.6605 39.0117 54.9579C39.0117 57.2553 40.4908 59.1194 42.7898 59.1194C59.1069 59.1179 71.9997 45.8432 71.9997 29.5261C71.9997 29.523 71.9997 29.5198 71.9997 29.5152C71.9997 20.3272 64.933 12.8801 55.7434 12.8801Z" fill="#F0F2F4"/>
<path d="M16.7551 12.8801C7.56238 12.8801 0.29146 20.3334 0.29146 29.5261C0.29146 38.7188 7.83513 46.172 17.0294 46.172C17.1213 46.172 17.2569 46.1596 17.3489 46.158C13.7142 49.0524 9.14748 50.7964 4.15058 50.7964C1.85163 50.7964 0 52.6605 0 54.9579C0 57.2553 1.5025 59.1194 3.80145 59.1194C20.1185 59.1179 33.0347 45.8432 33.0347 29.5261C33.0347 29.523 33.0347 29.5198 33.0347 29.5152C33.0347 20.3272 25.9446 12.8801 16.7551 12.8801Z" fill="#F0F2F4"/>
</svg>
