<svg width="60" height="60" viewBox="0 0 60 60" fill="none" xmlns="http://www.w3.org/2000/svg">
<path d="M11.2692 27.3584L2.13748 20.8123C2.36931 24.5639 3.56119 26.5841 3.56119 26.5841C2.63556 26.6617 1.71634 26.8026 0.80996 27.0058C0.771194 27.016 0.7349 27.034 0.703269 27.0586C0.671638 27.0832 0.645327 27.114 0.625925 27.1491C0.606524 27.1842 0.594433 27.2228 0.590384 27.2627C0.586335 27.3026 0.590412 27.3429 0.602368 27.3811C1.22541 29.284 2.24776 31.0318 3.60099 32.5075C4.95421 33.9832 6.60708 35.1528 8.44894 35.938C6.9377 36.1033 5.44631 36.4164 3.99619 36.8729C3.92276 36.8969 3.86144 36.9483 3.82501 37.0164C3.78859 37.0845 3.77989 37.164 3.80072 37.2384C4.19282 38.6592 6.43208 45.0144 15.0063 44.4599C13.8688 45.4852 12.9498 46.7294 12.3043 48.1181C12.2878 48.154 12.2787 48.1928 12.2774 48.2323C12.2761 48.2718 12.2826 48.3111 12.2967 48.348C12.3107 48.3849 12.332 48.4187 12.3593 48.4473C12.3865 48.4759 12.4192 48.4988 12.4553 48.5146C13.7838 49.101 19.6659 51.2976 23.1345 46.0069L23.4949 40.7692V39.0234C19.1197 37.2165 15.1394 32.6708 11.2692 27.3584Z" fill="url(#paint0_linear_718_3861)"/>
<path d="M2.38495 19.1295C5.78529 20.4441 8.97858 22.2416 11.8665 24.4665C13.0147 25.3659 13.8809 26.5756 14.3624 27.9523C15.2593 30.5404 17.662 35.203 23.4936 36.1375L22.7875 40.2955C22.7875 40.2955 14.7181 39.2566 11.5169 30.071C11.0973 28.8608 10.2228 27.8618 9.07889 27.2857C6.36845 25.927 1.76967 23.0676 1.98169 19.3895C1.98473 19.3429 1.99864 19.2977 2.02229 19.2575C2.04594 19.2173 2.07868 19.1832 2.11788 19.158C2.15708 19.1327 2.20166 19.117 2.24804 19.112C2.29441 19.1071 2.3413 19.1131 2.38495 19.1295Z" fill="url(#paint1_linear_718_3861)"/>
<path d="M48.731 27.3584L57.8628 20.8123C57.631 24.5639 56.4391 26.5841 56.4391 26.5841C57.3647 26.6617 58.2839 26.8026 59.1903 27.0058C59.2291 27.016 59.2654 27.034 59.297 27.0586C59.3286 27.0832 59.3549 27.114 59.3743 27.1491C59.3937 27.1842 59.4058 27.2228 59.4099 27.2627C59.4139 27.3026 59.4098 27.3429 59.3979 27.3811C58.7748 29.284 57.7525 31.0318 56.3993 32.5075C55.046 33.9832 53.3932 35.1528 51.5513 35.938C53.0626 36.1033 54.554 36.4164 56.0041 36.8729C56.0775 36.8969 56.1388 36.9483 56.1752 37.0164C56.2117 37.0845 56.2204 37.164 56.1995 37.2384C55.8074 38.6592 53.5682 45.0144 44.994 44.4599C46.1315 45.4852 47.0504 46.7294 47.6959 48.1181C47.7124 48.154 47.7216 48.1928 47.7229 48.2323C47.7242 48.2718 47.7176 48.3111 47.7036 48.348C47.6895 48.3849 47.6682 48.4187 47.641 48.4473C47.6138 48.4759 47.5811 48.4988 47.5449 48.5146C46.2164 49.101 40.3344 51.2976 36.8657 46.0069L36.5054 40.7692V39.0234C40.8806 37.2165 44.8608 32.6708 48.731 27.3584Z" fill="url(#paint2_linear_718_3861)"/>
<path d="M57.6155 19.1295C54.2151 20.4441 51.0218 22.2416 48.1339 24.4665C46.9857 25.366 46.1195 26.576 45.638 27.9529C44.7411 30.541 42.3385 35.2036 36.5068 36.1381L37.2129 40.2961C37.2129 40.2961 45.2823 39.2572 48.4835 30.0715C48.9031 28.8614 49.7776 27.8624 50.9215 27.2862C53.632 25.9276 58.2308 23.0682 58.0187 19.39C58.0158 19.3434 58.0019 19.2982 57.9783 19.2579C57.9547 19.2176 57.922 19.1835 57.8828 19.1581C57.8435 19.1328 57.7989 19.117 57.7525 19.112C57.7061 19.1071 57.6592 19.1131 57.6155 19.1295Z" fill="url(#paint3_linear_718_3861)"/>
<path d="M34.043 53.092C39.7308 46.5269 38.0681 37.6199 37.1381 34.2195C37.0301 33.8243 37.0031 33.4113 37.0587 33.0054C37.1143 32.5995 37.2514 32.209 37.4617 31.8573C38.043 30.8677 38.2292 29.6951 37.9831 28.5741C37.9709 28.5157 37.9415 28.4623 37.8986 28.4208C37.8557 28.3793 37.8013 28.3517 37.7425 28.3415C37.6837 28.3313 37.6232 28.3391 37.5689 28.3638C37.5145 28.3884 37.4689 28.4289 37.4378 28.4799C37.2314 28.8081 36.9718 29.0996 36.6696 29.3425C36.2525 29.6687 35.7478 29.8632 35.2197 29.9014C34.6917 29.9395 34.1642 29.8195 33.7046 29.5567C32.5739 28.9217 31.2989 28.588 30.0021 28.5876C28.7053 28.5873 27.4301 28.9202 26.299 29.5546C25.8391 29.8181 25.3111 29.9387 24.7823 29.901C24.2536 29.8633 23.7481 29.669 23.3302 29.3429C23.0274 29.0997 22.7673 28.8078 22.5606 28.4791C22.5293 28.4284 22.4835 28.3882 22.4292 28.3639C22.3748 28.3395 22.3144 28.332 22.2557 28.3423C22.197 28.3527 22.1428 28.3805 22.1001 28.422C22.0574 28.4635 22.0281 28.5169 22.0161 28.5753C21.77 29.6963 21.9562 30.8689 22.5375 31.8585C22.7478 32.2101 22.8849 32.6006 22.9405 33.0065C22.9961 33.4125 22.9691 33.8254 22.8611 34.2207C21.9311 37.621 20.2684 46.5281 25.9562 53.0931C25.9562 53.0931 23.6217 54.514 23.6638 57.4129C23.6666 57.5391 23.709 57.6612 23.7849 57.762C23.8609 57.8628 23.9665 57.9372 24.0871 57.9747C24.8039 58.2035 26.3698 58.4411 27.8861 56.9248C27.8861 56.9248 27.7 58.6918 29.6859 59.9119C29.7805 59.9696 29.8892 60.0001 30.0001 60.0001C30.1109 60.0001 30.2196 59.9696 30.3142 59.9119C32.3001 58.6918 32.1141 56.9248 32.1141 56.9248C33.6303 58.4411 35.1962 58.2035 35.9131 57.9747C36.0336 57.9372 36.1393 57.8628 36.2152 57.762C36.2912 57.6612 36.3336 57.5391 36.3364 57.4129C36.3775 54.5128 34.043 53.092 34.043 53.092Z" fill="url(#paint4_linear_718_3861)"/>
<path fill-rule="evenodd" clip-rule="evenodd" d="M36.3441 9.89629C33.1342 7.29724 31.2207 1.89099 30.6622 0.125583C30.6509 0.0892034 30.6283 0.0573862 30.5976 0.0347887C30.567 0.0121911 30.5299 0 30.4918 0C30.4537 0 30.4166 0.0121911 30.386 0.0347887C30.3553 0.0573862 30.3327 0.0892034 30.3214 0.125583C29.7745 1.89252 27.8973 7.29724 24.687 9.89532C25.6932 9.93956 26.7009 9.85799 27.6868 9.65252C27.8598 9.61872 28.0382 9.62368 28.209 9.66705C28.3799 9.71042 28.539 9.79112 28.675 9.90335C28.8109 10.0156 28.9203 10.1565 28.9952 10.3161C29.0702 10.4757 29.1088 10.6498 29.1084 10.8261V25.0007C29.1084 25.0915 29.1262 25.1814 29.161 25.2653C29.1957 25.3492 29.2466 25.4254 29.3108 25.4896C29.375 25.5539 29.4512 25.6048 29.5351 25.6395C29.619 25.6743 29.7089 25.6922 29.7997 25.6922H31.2826C31.466 25.6922 31.6419 25.6193 31.7716 25.4896C31.9013 25.36 31.9741 25.1841 31.9741 25.0007V10.8373C31.9736 10.6613 32.0121 10.4873 32.0868 10.3279C32.1615 10.1685 32.2706 10.0276 32.4061 9.91534C32.5417 9.80307 32.7004 9.72219 32.871 9.67851C33.0415 9.63484 33.2196 9.62944 33.3924 9.66272C34.363 9.86136 35.3544 9.93981 36.3441 9.89629ZM20.5662 13.7331C20.1019 15.2001 18.6769 19.1575 16.291 21.0889C17.0604 21.1228 17.8311 21.0605 18.5851 20.9036C18.7177 20.8774 18.8545 20.881 18.9856 20.914C19.1167 20.947 19.2389 21.0087 19.3432 21.0946C19.4476 21.1805 19.5316 21.2885 19.5892 21.4109C19.6468 21.5332 19.6766 21.6667 19.6764 21.8019V24.3094C19.6764 24.3769 19.6897 24.4438 19.7155 24.5061C19.7414 24.5685 19.7793 24.6252 19.827 24.6729C19.8748 24.7207 19.9315 24.7585 19.9939 24.7844C20.0562 24.8102 20.1231 24.8235 20.1906 24.8234H21.3565C21.4241 24.8235 21.4909 24.8102 21.5533 24.7844C21.6157 24.7585 21.6724 24.7207 21.7202 24.6729C21.7679 24.6252 21.8058 24.5685 21.8317 24.5061C21.8575 24.4438 21.8708 24.3769 21.8708 24.3094V21.8094C21.8707 21.6745 21.9004 21.5412 21.9578 21.4191C22.0153 21.297 22.0991 21.1891 22.2031 21.1032C22.3072 21.0173 22.429 20.9555 22.5598 20.9222C22.6906 20.8889 22.8271 20.885 22.9596 20.9107C23.7019 21.0624 24.4601 21.1223 25.2171 21.0889C22.8314 19.1571 21.38 15.1982 20.9061 13.7322C20.8946 13.6961 20.8718 13.6647 20.8412 13.6424C20.8106 13.6201 20.7737 13.6082 20.7358 13.6083C20.698 13.6084 20.6611 13.6205 20.6306 13.643C20.6001 13.6654 20.5775 13.697 20.5662 13.7331ZM44.7404 21.0889C42.3543 19.1575 40.9293 15.2001 40.465 13.7331C40.4537 13.697 40.4311 13.6654 40.4006 13.643C40.3701 13.6205 40.3333 13.6084 40.2954 13.6083C40.2575 13.6082 40.2206 13.6201 40.19 13.6424C40.1594 13.6647 40.1366 13.6961 40.1251 13.7322C39.6512 15.1982 38.1998 19.1571 35.8141 21.0889C36.5711 21.1223 37.3293 21.0624 38.0717 20.9107C38.2041 20.885 38.3407 20.8889 38.4714 20.9222C38.6022 20.9555 38.724 21.0173 38.8281 21.1032C38.9322 21.1891 39.0159 21.297 39.0734 21.4191C39.1308 21.5412 39.1606 21.6745 39.1604 21.8094V24.3094C39.1604 24.3769 39.1737 24.4438 39.1996 24.5061C39.2254 24.5685 39.2633 24.6252 39.3111 24.6729C39.3588 24.7207 39.4155 24.7585 39.4779 24.7844C39.5403 24.8102 39.6072 24.8235 39.6747 24.8234H40.8406C40.9081 24.8235 40.975 24.8102 41.0374 24.7844C41.0998 24.7585 41.1565 24.7207 41.2042 24.6729C41.252 24.6252 41.2899 24.5685 41.3157 24.5061C41.3416 24.4438 41.3549 24.3769 41.3549 24.3094V21.8019C41.3546 21.6667 41.3844 21.5332 41.442 21.4109C41.4996 21.2885 41.5836 21.1805 41.688 21.0946C41.7924 21.0087 41.9145 20.947 42.0456 20.914C42.1767 20.881 42.3135 20.8774 42.4461 20.9036C43.2002 21.0605 43.9709 21.1228 44.7404 21.0889Z" fill="url(#paint5_linear_718_3861)"/>
<path d="M28.5886 37.1225L25.331 35.4377C25.331 35.4377 24.5818 37.0121 26.1391 37.6203C27.5632 38.1765 28.5886 37.1225 28.5886 37.1225Z" fill="white"/>
<path d="M31.4116 37.1225L34.6692 35.4377C34.6692 35.4377 35.4184 37.0121 33.8612 37.6203C32.4371 38.1765 31.4116 37.1225 31.4116 37.1225Z" fill="white"/>
<path d="M29.598 38.3648C29.1657 38.59 28.7957 38.9183 28.5206 39.3207C28.3851 39.5139 28.3304 39.7524 28.3681 39.9854C28.6474 41.6015 30.0009 43.1814 30.0009 43.1814C30.0009 43.1814 31.3544 41.6015 31.6337 39.9854C31.6714 39.7524 31.6166 39.5139 31.4812 39.3207C31.2061 38.9183 30.8361 38.59 30.4038 38.3648C30.2791 38.3008 30.141 38.2673 30.0009 38.2673C29.8608 38.2673 29.7226 38.3008 29.598 38.3648Z" fill="white"/>
<defs>
<linearGradient id="paint0_linear_718_3861" x1="12.0419" y1="12.2536" x2="12.0419" y2="42.7023" gradientUnits="userSpaceOnUse">
<stop stop-color="#96A4C0"/>
<stop offset="1" stop-color="#627197"/>
</linearGradient>
<linearGradient id="paint1_linear_718_3861" x1="12.7341" y1="12.7826" x2="12.7341" y2="35.2946" gradientUnits="userSpaceOnUse">
<stop stop-color="#7A8AA9"/>
<stop offset="1" stop-color="#445379"/>
</linearGradient>
<linearGradient id="paint2_linear_718_3861" x1="47.9584" y1="12.2536" x2="47.9584" y2="42.7023" gradientUnits="userSpaceOnUse">
<stop stop-color="#96A4C0"/>
<stop offset="1" stop-color="#627197"/>
</linearGradient>
<linearGradient id="paint3_linear_718_3861" x1="47.2663" y1="12.7824" x2="47.2663" y2="35.2951" gradientUnits="userSpaceOnUse">
<stop stop-color="#7A8AA9"/>
<stop offset="1" stop-color="#445379"/>
</linearGradient>
<linearGradient id="paint4_linear_718_3861" x1="29.9996" y1="18.8798" x2="29.9996" y2="52.5259" gradientUnits="userSpaceOnUse">
<stop stop-color="#7A8AA9"/>
<stop offset="1" stop-color="#445379"/>
</linearGradient>
<linearGradient id="paint5_linear_718_3861" x1="23.3431" y1="43.7985" x2="27.3043" y2="-2.33694" gradientUnits="userSpaceOnUse">
<stop stop-color="#D83E4E"/>
<stop offset="1" stop-color="#FF5163"/>
</linearGradient>
</defs>
</svg>
