<svg width="60" height="60" viewBox="0 0 60 60" fill="none" xmlns="http://www.w3.org/2000/svg">
<path d="M31.4956 25.0296L28.75 23.9078L20.5127 20.5125L23.908 28.7497L25.0299 31.4953L35.127 55.9999L41.3859 41.3857L56.0001 35.1267L31.4956 25.0296Z" fill="url(#paint0_linear_716_833)"/>
<path d="M20.5957 4C11.4265 4 4 11.4265 4 20.5957C4 29.765 11.4265 37.1915 20.5957 37.1915C22.7948 37.1915 24.9521 36.7351 26.8606 35.9468L27.5891 32.3364L25.284 32.0883C23.832 32.7105 22.2554 33.0425 20.5957 33.0425C13.7499 33.0425 8.14893 27.4416 8.14893 20.5957C8.14893 13.7499 13.7499 8.14893 20.5957 8.14893C27.4416 8.14893 33.0425 13.7499 33.0425 20.5957C33.0425 22.2554 32.7105 23.832 32.0884 25.284L32.5943 27.3189L35.9468 26.8606C36.7351 24.952 37.1915 22.7948 37.1915 20.5957C37.1915 11.4265 29.765 4 20.5957 4V4Z" fill="url(#paint1_linear_716_833)"/>
<path d="M35.9464 26.8608C34.2867 31.0097 31.0092 34.2872 26.8603 35.9469L25.2837 32.0884C28.3954 30.8435 30.8431 28.3959 32.0879 25.2842L35.9464 26.8608Z" fill="#B9313E"/>
<defs>
<linearGradient id="paint0_linear_716_833" x1="23.2771" y1="60.3014" x2="57.0627" y2="57.8258" gradientUnits="userSpaceOnUse">
<stop stop-color="#D33B4B"/>
<stop offset="1" stop-color="#F4495A"/>
</linearGradient>
<linearGradient id="paint1_linear_716_833" x1="20.5957" y1="-5.91392" x2="20.5957" y2="29.3564" gradientUnits="userSpaceOnUse">
<stop stop-color="#96A4C0"/>
<stop offset="1" stop-color="#627197"/>
</linearGradient>
</defs>
</svg>
