<svg width="54" height="54" viewBox="0 0 54 54" fill="none" xmlns="http://www.w3.org/2000/svg">
<path d="M6.40186 8.98669V30.6309C6.40186 45.4461 27.0001 54.0001 27.0001 54.0001L33.6921 39.5047C33.6921 39.5047 25.8381 10.8453 6.40186 8.98669Z" fill="url(#paint0_linear_741_10195)"/>
<path d="M6.40186 8.98669V30.6309C6.40186 45.4461 27.0001 54.0001 27.0001 54.0001L33.6921 39.5047C33.6921 39.5047 25.8381 10.8453 6.40186 8.98669Z" fill="url(#paint1_linear_741_10195)"/>
<path d="M12.7351 14.997H27.0001V1.00061C20.3986 8.87092 6.40186 8.98664 6.40186 8.98664L11.3041 13.5426L12.7351 14.997Z" fill="url(#paint2_linear_741_10195)"/>
<path d="M12.7351 14.997H27.0001V1.00061C20.3986 8.87092 6.40186 8.98664 6.40186 8.98664L11.3041 13.5426L12.7351 14.997Z" fill="url(#paint3_linear_741_10195)"/>
<path d="M27 1.00061V14.667L42.6959 13.5426L47.5982 8.98664C47.5982 8.98664 33.6015 8.87092 27 1.00061Z" fill="url(#paint4_linear_741_10195)"/>
<path d="M47.5982 30.6309V8.98669L42.6959 13.5427L27 47.843V54.0001C27 54.0001 47.5982 45.4461 47.5982 30.6309Z" fill="url(#paint5_linear_741_10195)"/>
<path d="M27.0001 7.45703C21.9698 13.4544 11.3042 13.5425 11.3042 13.5425V30.0354C11.3042 41.3246 27.0001 47.8429 27.0001 47.8429C27.0001 47.8429 42.6961 41.3246 42.6961 30.0354V13.5425C42.6961 13.5425 32.0305 13.4544 27.0001 7.45703Z" fill="url(#paint6_linear_741_10195)"/>
<defs>
<linearGradient id="paint0_linear_741_10195" x1="20.047" y1="12.1696" x2="20.047" y2="54.2055" gradientUnits="userSpaceOnUse">
<stop stop-color="#9BA4FF"/>
<stop offset="0.5" stop-color="#B4DCFF"/>
<stop offset="1" stop-color="#EBF8FF"/>
</linearGradient>
<linearGradient id="paint1_linear_741_10195" x1="20.047" y1="12.1696" x2="20.047" y2="54.2055" gradientUnits="userSpaceOnUse">
<stop stop-color="#FF9B9B"/>
<stop offset="0.5" stop-color="#FFB9B4"/>
<stop offset="1" stop-color="#FFEFEB"/>
</linearGradient>
<linearGradient id="paint2_linear_741_10195" x1="32.4546" y1="0.347875" x2="13.4727" y2="14.378" gradientUnits="userSpaceOnUse">
<stop stop-color="#9BA4FF"/>
<stop offset="0.5" stop-color="#B4DCFF"/>
<stop offset="1" stop-color="#EBF8FF"/>
</linearGradient>
<linearGradient id="paint3_linear_741_10195" x1="45.8204" y1="9.63535" x2="4.95015" y2="8.01754" gradientUnits="userSpaceOnUse">
<stop stop-color="#FF9B9B"/>
<stop offset="0.5" stop-color="#FFBDB4"/>
<stop offset="1" stop-color="#FFF0EB"/>
</linearGradient>
<linearGradient id="paint4_linear_741_10195" x1="66.4185" y1="9.43173" x2="25.5514" y2="7.77499" gradientUnits="userSpaceOnUse">
<stop stop-color="#FF9B9B"/>
<stop offset="0.5" stop-color="#FFBDB4"/>
<stop offset="1" stop-color="#FFF0EB"/>
</linearGradient>
<linearGradient id="paint5_linear_741_10195" x1="37.2991" y1="12.1696" x2="37.2991" y2="54.2055" gradientUnits="userSpaceOnUse">
<stop stop-color="#FF9B9B"/>
<stop offset="0.5" stop-color="#FFB9B4"/>
<stop offset="1" stop-color="#FFEFEB"/>
</linearGradient>
<linearGradient id="paint6_linear_741_10195" x1="27.0001" y1="46.6978" x2="27.0001" y2="8.42543" gradientUnits="userSpaceOnUse">
<stop stop-color="#F86A6A"/>
<stop offset="1" stop-color="#DF3A3A"/>
</linearGradient>
</defs>
</svg>
