<svg width="67" height="48" viewBox="0 0 67 48" fill="none" xmlns="http://www.w3.org/2000/svg">
<g clip-path="url(#clip0_206_5060)">
<path fill-rule="evenodd" clip-rule="evenodd" d="M48.078 18.1479C49.5953 18.1479 50.8253 16.9198 50.8253 15.4053C50.8253 13.89 49.5953 12.6606 48.078 12.6606C46.5623 12.6606 45.333 13.89 45.333 15.4053C45.333 16.9198 46.5623 18.1479 48.078 18.1479ZM27.0373 19.6291C26.9133 19.9401 26.0211 22.4581 23.8632 25.0677V13.9094L18.1136 15.0447V35.2702H23.8632V29.0184C25.5285 31.5136 26.3508 35.2702 26.3508 35.2702H33.2376C32.5564 32.4409 29.5765 27.2241 29.5765 27.2241C32.2509 23.8366 33.4256 20.2271 33.6125 19.6291H27.0373ZM42.1527 19.4179C37.0029 19.5831 34.3887 21.8913 34.3887 26.4798V35.2702H40.007V28.1019C40.007 25.3543 40.3671 24.1766 43.6306 24.0642V19.4984C43.0813 19.382 42.1527 19.4179 42.1527 19.4179ZM8.47093 21.8562C7.76669 21.8099 6.13626 21.7047 6.13626 20.2383C6.13626 18.4687 8.48362 18.4687 9.36406 18.4687C10.9121 18.4687 12.9171 18.9258 14.3489 19.3536C14.3489 19.3536 15.1476 19.635 15.8273 19.923L15.8905 19.9401V15.0939L15.8037 15.0683C14.114 14.4776 12.1491 13.9094 8.50634 13.9094C2.22546 13.9094 0 17.565 0 20.6965C0 22.5017 0.774485 26.7502 7.96769 27.2403C8.57748 27.2777 10.1958 27.3709 10.1958 28.8863C10.1958 30.1374 8.87086 30.8752 6.64244 30.8752C4.20034 30.8752 1.83143 30.253 0.392555 29.663V34.6542C2.54659 35.2183 4.97482 35.5002 7.8207 35.5002C13.962 35.5002 16.7125 32.0417 16.7125 28.6138C16.7125 24.7271 13.6346 22.2018 8.47093 21.8562ZM45.2929 35.2702H50.8657V19.6467H45.2929V35.2702ZM61.359 14.9055V35.2702H66.9327V13.9094L61.359 14.9055ZM53.2263 14.9055L58.7947 13.9094V35.2702H53.2263V14.9055Z" fill="url(#paint0_linear_206_5060)"/>
</g>
<defs>
<linearGradient id="paint0_linear_206_5060" x1="18.1013" y1="12.6606" x2="23.1213" y2="40.8337" gradientUnits="userSpaceOnUse">
<stop stop-color="#FFB9F5"/>
<stop offset="1" stop-color="#EDBCFF"/>
</linearGradient>
<clipPath id="clip0_206_5060">
<rect width="67" height="23" fill="white" transform="translate(0 12.5)"/>
</clipPath>
</defs>
</svg>
