<svg width="60" height="48" viewBox="0 0 60 48" fill="none" xmlns="http://www.w3.org/2000/svg">
<g clip-path="url(#clip0_206_5052)">
<path d="M0 38.5H20.6489V23.8069H0V38.5ZM7.30449 30.0032L9.25125 31.9679L13.7604 27.4172L15.208 28.8781L9.25125 34.8897L5.85691 31.4641L7.30449 30.0032ZM6.08985 17.2915C6.08985 14.9406 7.98669 13.0263 10.3328 13.0263C12.6622 13.0263 14.5591 14.9406 14.5591 17.2915V21.7079H18.0532V17.2915C18.0366 12.9928 14.5757 9.5 10.3328 9.5C6.07321 9.5 2.61231 12.9928 2.61231 17.2915V21.7079H6.10649V17.2915H6.08985ZM37.5707 22.5307C37.5707 20.4149 36.3394 19.2058 34.3927 18.467L32.5957 17.6946C31.1647 17.174 30.1664 16.8214 30.1664 15.9314C30.1664 15.0582 30.9151 14.5712 32.03 14.5712C33.4775 14.5712 34.4093 15.0078 35.4409 15.7635L37.1381 13.6309C35.7904 12.3547 34.01 11.6662 32.213 11.6662C29.0183 11.6662 26.7887 13.6309 26.7887 16.1161C26.7887 18.2991 28.2862 19.5753 29.9501 20.1966L31.8636 21.0194C33.2779 21.6071 34.1597 21.8926 34.1597 22.9505C34.1597 23.7061 33.4942 24.2603 32.0799 24.2603C30.6489 24.2603 29.2679 23.6222 28.1531 22.6986L26.223 25.0159C27.8037 26.4433 29.8503 27.1653 31.8469 27.1653C35.5075 27.1653 37.5707 24.9991 37.5707 22.5307ZM45.7404 18.467L43.9434 17.6946C42.5125 17.174 41.5141 16.8214 41.5141 15.9314C41.5141 15.0582 42.2629 14.5712 43.3777 14.5712C44.8253 14.5712 45.7571 15.0078 46.7887 15.7635L48.4859 13.6309C47.1381 12.3547 45.3577 11.6662 43.5607 11.6662C40.3661 11.6662 38.1364 13.6309 38.1364 16.1161C38.1364 18.2991 39.6339 19.5753 41.2978 20.1966L43.2113 21.0194C44.6256 21.6071 45.5075 21.8926 45.5075 22.9505C45.5075 23.7061 44.8419 24.2603 43.4276 24.2603C41.9967 24.2603 40.6156 23.6222 39.5008 22.6986L37.5707 25.0159C39.1514 26.4433 41.198 27.1653 43.1947 27.1653C46.8719 27.1653 48.9351 25.0159 48.9351 22.5307C48.9185 20.4149 47.7038 19.2058 45.7404 18.467Z" fill="#ECFFC2"/>
<path d="M53.5274 24.0422V11.9351H50.1996V26.8801H60.1164V24.0422H53.5274Z" fill="#ECFFC2"/>
<path d="M29.3677 32.186L28.4692 31.7998C27.9201 31.5647 27.3211 31.3464 27.3211 30.7251C27.3211 30.1374 27.8203 29.7848 28.5691 29.7848C29.2346 29.7848 29.7172 30.0198 30.1498 30.3893L30.5824 29.8519C30.1165 29.3817 29.4177 29.0459 28.6023 29.0459C27.3877 29.0459 26.5058 29.768 26.5058 30.7587C26.5058 31.6991 27.2546 32.1692 27.8869 32.4211L28.802 32.8241C29.4509 33.1096 29.9501 33.3111 29.9501 33.9996C29.9501 34.6041 29.4343 35.0239 28.5524 35.0239C27.8203 35.0239 27.1548 34.7048 26.6722 34.2179L26.1897 34.7888C26.7721 35.3765 27.5707 35.746 28.5191 35.746C29.9335 35.746 30.782 34.9231 30.782 33.8988C30.782 32.9417 30.1498 32.5051 29.3677 32.186Z" fill="#ECFFC2"/>
<path d="M33.3278 32.5892H35.99V31.8839H33.3278V29.8521H36.4725V29.1636H32.5125V35.6285H36.5724V34.9233H33.3278V32.5892Z" fill="#ECFFC2"/>
<path d="M40.7488 35.0241C39.5175 35.0241 38.7188 33.9998 38.7188 32.3709C38.7188 30.7589 39.5175 29.7514 40.7488 29.7514C41.2812 29.7514 41.7138 29.9864 42.03 30.3391L42.4959 29.8185C42.1298 29.3987 41.5142 29.0293 40.7488 29.0293C39.0849 29.0293 37.8702 30.3055 37.8702 32.3877C37.8702 34.5035 39.0849 35.7461 40.6656 35.7461C41.5142 35.7461 42.1464 35.3935 42.6456 34.8058L42.1797 34.302C41.797 34.7722 41.3478 35.0241 40.7488 35.0241ZM47.4043 33.2105C47.4043 34.5539 46.822 35.0409 46.04 35.0409C45.2746 35.0409 44.6922 34.5539 44.6922 33.2105V29.1636H43.8769V33.1937C43.8769 35.0409 44.792 35.7629 46.04 35.7629C47.2879 35.7629 48.1864 35.0577 48.1864 33.1937V29.1636H47.3877V33.2105H47.4043ZM54.1764 30.9772C54.1764 29.6338 53.2446 29.1636 51.9468 29.1636H49.9501V35.6286H50.7654V32.8915H51.9135L53.4609 35.6286H54.3927L52.7621 32.8075C53.594 32.5892 54.1764 31.9847 54.1764 30.9772ZM51.8137 32.2198H50.7488V29.8185H51.8137C52.812 29.8185 53.3611 30.1208 53.3611 30.9772C53.3611 31.8168 52.812 32.2198 51.8137 32.2198Z" fill="#ECFFC2"/>
<path d="M56.7554 32.5892H59.4176V31.8839H56.7554V29.8521H59.9002V29.1636H55.9235V35.6285H60V34.9233H56.7554V32.5892Z" fill="#ECFFC2"/>
</g>
<defs>
<clipPath id="clip0_206_5052">
<rect width="60" height="29" fill="white" transform="translate(0 9.5)"/>
</clipPath>
</defs>
</svg>
