<svg width="74" height="48" viewBox="0 0 74 48" fill="none" xmlns="http://www.w3.org/2000/svg">
<path fill-rule="evenodd" clip-rule="evenodd" d="M73.9231 24.4448C73.9231 19.1523 71.3795 14.9761 66.518 14.9761C61.6359 14.9761 58.6821 19.1523 58.6821 24.4035C58.6821 30.6264 62.1692 33.7689 67.1744 33.7689C69.6154 33.7689 71.4615 33.2107 72.8564 32.4251V28.2902C71.4615 28.9932 69.8616 29.4273 67.8308 29.4273C65.841 29.4273 64.0769 28.7244 63.8513 26.2848H73.8821C73.8821 26.0161 73.9231 24.941 73.9231 24.4448ZM63.7898 22.4808C63.7898 20.1446 65.2051 19.1729 66.4974 19.1729C67.7487 19.1729 69.0821 20.1446 69.0821 22.4808H63.7898Z" fill="#C0BCFF"/>
<path fill-rule="evenodd" clip-rule="evenodd" d="M50.7641 14.9761C48.7539 14.9761 47.4615 15.9271 46.7436 16.5887L46.4769 15.3069H41.9641V39.4129L47.0923 38.3172L47.1128 32.4664C47.8513 33.0039 48.9385 33.7689 50.7436 33.7689C54.4154 33.7689 57.759 30.7918 57.759 24.2381C57.7385 18.2426 54.3539 14.9761 50.7641 14.9761ZM49.5333 29.2206C48.3231 29.2206 47.6051 28.7864 47.1128 28.2489L47.0923 20.5788C47.6256 19.9792 48.3641 19.5657 49.5333 19.5657C51.4 19.5657 52.6923 21.6745 52.6923 24.3828C52.6923 27.1532 51.4205 29.2206 49.5333 29.2206Z" fill="#C0BCFF"/>
<path fill-rule="evenodd" clip-rule="evenodd" d="M34.9077 13.7561L40.0564 12.6397V8.44287L34.9077 9.5386V13.7561Z" fill="#C0BCFF"/>
<path d="M40.0564 15.3271H34.9077V33.417H40.0564V15.3271Z" fill="#C0BCFF"/>
<path fill-rule="evenodd" clip-rule="evenodd" d="M29.3897 16.8574L29.0615 15.3275H24.6308V33.4174H29.759V21.1576C30.9692 19.5657 33.0205 19.8551 33.6564 20.0825V15.3275C33 15.0794 30.6 14.6245 29.3897 16.8574Z" fill="#C0BCFF"/>
<path fill-rule="evenodd" clip-rule="evenodd" d="M19.1333 10.8413L14.1282 11.9164L14.1077 28.4764C14.1077 31.5361 16.3846 33.7896 19.4205 33.7896C21.1026 33.7896 22.3333 33.4795 23.0103 33.1074V28.9105C22.3539 29.1793 19.1128 30.1303 19.1128 27.0705V19.7312H23.0103V15.3276H19.1128L19.1333 10.8413Z" fill="#C0BCFF"/>
<path fill-rule="evenodd" clip-rule="evenodd" d="M5.26668 20.5788C5.26668 19.7725 5.92309 19.4624 7.01027 19.4624C8.56924 19.4624 10.5385 19.9379 12.0974 20.7855V15.9271C10.3949 15.2448 8.71283 14.9761 7.01027 14.9761C2.84617 14.9761 0.0769348 17.1675 0.0769348 20.8269C0.0769348 26.5329 7.87181 25.6233 7.87181 28.0835C7.87181 29.0345 7.05129 29.3446 5.90258 29.3446C4.20001 29.3446 2.02565 28.6417 0.302576 27.6907V32.6111C2.21027 33.4381 4.13847 33.7896 5.90258 33.7896C10.1692 33.7896 13.1026 31.6601 13.1026 27.9594C13.0821 21.7985 5.26668 22.8943 5.26668 20.5788Z" fill="#C0BCFF"/>
</svg>
