<svg width="54" height="54" viewBox="0 0 54 54" fill="none" xmlns="http://www.w3.org/2000/svg">
<g clip-path="url(#clip0_741_10179)">
<path d="M16.1037 17.381C16.7027 12.6785 16.7652 8.38638 14.1191 6.16435C14.1191 6.16435 11.8135 1.99456 6.22115 7.43978C5.2794 7.10514 4.29488 6.90599 3.29711 6.84829C0.600559 6.74841 -0.319589 10.4046 2.10316 11.5918C2.83256 11.939 3.6021 12.1946 4.39425 12.3529C5.80483 12.6284 7.13227 13.2274 8.27217 14.1028C9.52113 15.094 10.7378 16.5967 10.8313 18.7223L16.1037 17.381Z" fill="url(#paint0_linear_741_10179)"/>
<path d="M16.1037 17.381C16.7027 12.6785 16.7652 8.38638 14.1191 6.16435C14.1191 6.16435 11.8135 1.99456 6.22115 7.43978C5.2794 7.10514 4.29488 6.90599 3.29711 6.84829C0.600559 6.74841 -0.319589 10.4046 2.10316 11.5918C2.83256 11.939 3.6021 12.1946 4.39425 12.3529C5.80483 12.6284 7.13227 13.2274 8.27217 14.1028C9.52113 15.094 10.7378 16.5967 10.8313 18.7223L16.1037 17.381Z" fill="url(#paint1_linear_741_10179)"/>
<path d="M10.5289 10.2705C10.3429 9.09161 9.7706 6.99332 8.02227 5.92151C7.38248 6.37927 6.77991 6.88694 6.22021 7.43976C6.22021 7.43976 8.67443 8.63161 10.1364 10.443C10.1669 10.4812 10.2092 10.5083 10.2567 10.52C10.3041 10.5317 10.3542 10.5273 10.3989 10.5077C10.4437 10.488 10.4807 10.4541 10.5042 10.4112C10.5277 10.3683 10.5364 10.3189 10.5289 10.2705Z" fill="#485686"/>
<path fill-rule="evenodd" clip-rule="evenodd" d="M18.4475 16.2176C18.533 14.1652 19.0296 12.1477 19.9112 10.2857C20.0801 9.94334 20.1779 9.5703 20.1988 9.1891C20.2197 8.8079 20.1632 8.42641 20.0327 8.06762C19.9023 7.70883 19.7005 7.38017 19.4396 7.10143C19.1788 6.82269 18.8642 6.59964 18.5148 6.44572C17.438 5.97589 15.9865 5.72581 14.1191 6.16418L14.1192 6.16442C14.1357 6.20784 16.4322 12.237 14.1027 16.2402C10.4652 16.8524 7.38461 18.8616 10.005 22.0584L20.7585 20.7402C20.7585 20.7402 22.0338 17.0354 18.4475 16.2176Z" fill="url(#paint2_linear_741_10179)"/>
<path d="M9.69901 21.654C6.31723 23.6911 2.63777 27.3725 1.36686 33.9592C1.15034 35.0671 1.0955 36.2005 1.20406 37.3241C8.37712 46.096 20.9775 39.8168 23.8407 28.3294C24.7934 25.6584 24.4388 22.9728 23.2076 20.2758C18.773 18.6231 13.7952 19.1867 9.69901 21.654Z" fill="url(#paint3_linear_741_10179)"/>
<path d="M24.2686 20.7189C26.2851 21.655 30.8566 23.4286 31.428 24.5715C35.047 29.1429 35.3137 39.6572 32.5709 42.8572C29.828 46.0572 24.3697 47.4611 21.412 47.7631H12.8308C7.24728 47.7631 2.39259 43.8281 1.35256 38.3424C1.33621 38.2561 1.32089 38.1712 1.30658 38.0876C1.2635 37.834 1.23236 37.5792 1.20703 37.3238C3.5383 39.5137 6.9104 40.7538 11.7538 39.2578C23.5645 35.6098 23.759 25.0198 23.2072 20.2776C23.5645 20.4109 23.919 20.5566 24.2686 20.7189Z" fill="url(#paint4_linear_741_10179)"/>
</g>
<path d="M39.6568 0C31.968 0 25.7134 6.2546 25.7134 13.9434C25.7134 23.767 38.0365 36.3068 38.5615 36.8318C38.8641 37.1344 39.2605 37.2857 39.6568 37.2857C40.0531 37.2857 40.4496 37.1344 40.7521 36.8318C41.2771 36.3068 53.6002 23.767 53.6002 13.9434C53.6002 6.2546 47.3456 0 39.6568 0ZM39.6568 21.6897C35.3857 21.6897 31.9104 18.2145 31.9104 13.9434C31.9104 9.67228 35.3857 6.19707 39.6568 6.19707C43.9279 6.19707 47.4031 9.67228 47.4031 13.9434C47.4031 18.2145 43.9279 21.6897 39.6568 21.6897Z" fill="url(#paint5_linear_741_10179)"/>
<path d="M39.6565 21.6897C35.3854 21.6897 31.9102 18.2145 31.9102 13.9434C31.9102 9.67223 35.3854 6.19702 39.6565 6.19702C43.9276 6.19702 47.4028 9.67223 47.4028 13.9434C47.4028 18.2145 43.9276 21.6897 39.6565 21.6897Z" fill="url(#paint6_linear_741_10179)"/>
<defs>
<linearGradient id="paint0_linear_741_10179" x1="3.96443" y1="1.24931" x2="16.816" y2="25.2235" gradientUnits="userSpaceOnUse">
<stop stop-color="#FFA7B4"/>
<stop offset="1" stop-color="#ED7784"/>
</linearGradient>
<linearGradient id="paint1_linear_741_10179" x1="8.57181" y1="18.3229" x2="7.00098" y2="-4.49994" gradientUnits="userSpaceOnUse">
<stop stop-color="#889ABE"/>
<stop offset="1" stop-color="#5D6997"/>
</linearGradient>
<linearGradient id="paint2_linear_741_10179" x1="15.0028" y1="21.6013" x2="18.0005" y2="-5.49988" gradientUnits="userSpaceOnUse">
<stop offset="0.414583" stop-color="#485686"/>
<stop offset="1" stop-color="#61729E"/>
</linearGradient>
<linearGradient id="paint3_linear_741_10179" x1="12.7671" y1="12.7304" x2="12.7671" y2="36.226" gradientUnits="userSpaceOnUse">
<stop stop-color="#96A4C0"/>
<stop offset="1" stop-color="#627197"/>
</linearGradient>
<linearGradient id="paint4_linear_741_10179" x1="17.8108" y1="12.068" x2="17.8108" y2="41.275" gradientUnits="userSpaceOnUse">
<stop stop-color="#7A8AA9"/>
<stop offset="1" stop-color="#445379"/>
</linearGradient>
<linearGradient id="paint5_linear_741_10179" x1="32.626" y1="63.5625" x2="41.0635" y2="-2.8125" gradientUnits="userSpaceOnUse">
<stop stop-color="#D83E4E"/>
<stop offset="1" stop-color="#FF5163"/>
</linearGradient>
<linearGradient id="paint6_linear_741_10179" x1="36.0004" y1="21.375" x2="41.6254" y2="5.62498" gradientUnits="userSpaceOnUse">
<stop stop-color="#FFE5E7"/>
<stop offset="0.0001" stop-color="#FFE9EB"/>
<stop offset="1" stop-color="#FFE9EB"/>
</linearGradient>
<clipPath id="clip0_741_10179">
<rect width="35.4286" height="43.4286" fill="white" transform="translate(0.000488281 4.57153)"/>
</clipPath>
</defs>
</svg>
