<svg fill="none" xmlns="http://www.w3.org/2000/svg" viewBox="12.25 13.25 23.5 21.5"> <path fill-rule="evenodd" clip-rule="evenodd" d="M20 22C22.2091 22 24 20.2091 24 18C24 15.7909 22.2091 14 20 14C17.7909 14 16 15.7909 16 18C16 20.2091 17.7909 22 20 22ZM17.8 26C15.149 26 13 28.149 13 30.8C13 32.5673 14.4327 34 16.2 34H23.8C25.5673 34 27 32.5673 27 30.8C27 28.149 24.851 26 22.2 26H17.8Z" fill="#FFD8DA"></path> <path fill-rule="evenodd" clip-rule="evenodd" d="M16.75 18C16.75 16.2051 18.2051 14.75 20 14.75C21.7949 14.75 23.25 16.2051 23.25 18C23.25 19.7949 21.7949 21.25 20 21.25C18.2051 21.25 16.75 19.7949 16.75 18ZM20 13.25C17.3766 13.25 15.25 15.3766 15.25 18C15.25 20.6234 17.3766 22.75 20 22.75C22.6234 22.75 24.75 20.6234 24.75 18C24.75 15.3766 22.6234 13.25 20 13.25ZM27 13.25C26.5858 13.25 26.25 13.5858 26.25 14C26.25 14.4142 26.5858 14.75 27 14.75C28.7949 14.75 30.25 16.2051 30.25 18C30.25 19.7949 28.7949 21.25 27 21.25C26.5858 21.25 26.25 21.5858 26.25 22C26.25 22.4142 26.5858 22.75 27 22.75C29.6234 22.75 31.75 20.6234 31.75 18C31.75 15.3766 29.6234 13.25 27 13.25ZM12.25 30.8C12.25 27.7348 14.7348 25.25 17.8 25.25H22.2C25.2652 25.25 27.75 27.7348 27.75 30.8C27.75 32.9815 25.9815 34.75 23.8 34.75H16.2C14.0185 34.75 12.25 32.9815 12.25 30.8ZM17.8 26.75C15.5632 26.75 13.75 28.5632 13.75 30.8C13.75 32.1531 14.8469 33.25 16.2 33.25H23.8C25.1531 33.25 26.25 32.1531 26.25 30.8C26.25 28.5632 24.4368 26.75 22.2 26.75H17.8ZM29 25.25C28.5858 25.25 28.25 25.5858 28.25 26C28.25 26.4142 28.5858 26.75 29 26.75H30.2C32.4368 26.75 34.25 28.5632 34.25 30.8C34.25 32.1531 33.1531 33.25 31.8 33.25H29C28.5858 33.25 28.25 33.5858 28.25 34C28.25 34.4142 28.5858 34.75 29 34.75H31.8C33.9815 34.75 35.75 32.9815 35.75 30.8C35.75 27.7348 33.2652 25.25 30.2 25.25H29Z" fill="#22272F"></path> </svg>